<svg xmlns="http://www.w3.org/2000/svg" xmlns:xlink="http://www.w3.org/1999/xlink" xmlns:lucid="lucid" width="872" height="673"><g transform="translate(-440 -20)" lucid:page-tab-id="0_0"><path d="M460 295c0-1.1.9-2 2-2h376c1.1 0 2 .9 2 2v376c0 1.1-.9 2-2 2H462c-1.1 0-2-.9-2-2z" fill="#eceff1"/><use xlink:href="#a" transform="matrix(1,0,0,1,476,309.00085937499995) translate(131.654296875 16.69921875)"/><use xlink:href="#b" transform="matrix(1,0,0,1,476,309.00085937499995) translate(177.3046875 16.69921875)"/><use xlink:href="#c" transform="matrix(1,0,0,1,476,309.00085937499995) translate(186.7265625 16.69921875)"/><path d="M480.04 349.33c0-1.1.9-2 2-2h136c1.1 0 2 .9 2 2v116c0 1.1-.9 2-2 2h-136c-1.1 0-2-.9-2-2z" fill="#f9fbe7"/><use xlink:href="#d" transform="matrix(1,0,0,1,496.0394638501442,363.3287500000002) translate(0 14.637586805555557)"/><path d="M828.18 79.92l-20.6-35.4c-1.6-2.83-4.4-4.43-7.7-4.52h-41c-3.3.1-6.1 1.7-7.7 4.53l-20.6 35.3c-1.6 2.75-1.6 5.95 0 8.8l20.6 35.56c1.6 2.92 4.3 4.6 7.7 4.7h41c3.3-.1 6.1-1.78 7.7-4.7l20.6-35.3c1.6-2.94 1.6-6.14 0-8.98z" stroke="#000" stroke-opacity="0" fill="#4285f4"/><path d="M787.87 66.6l-9.05-3.22-8.04 9.7 5.48 5.43-3 2.82-5.47-5.37-9.9 7.93 3.45 8.97 36.34 36.03h2.22c3.3-.14 6.06-1.77 7.7-4.72l14.04-24.1z" stroke="#000" stroke-opacity="0" fill-opacity=".07"/><path d="M779.37 58.16l-8.6 8.5v6.42l8.6-8.5 8.6 8.5v-6.4l-8.6-8.52zM779.37 110.7l-8.6-8.5v-6.4l8.6 8.5 8.6-8.5v6.4l-8.6 8.5zM752.83 84.44l8.6 8.5h6.47l-8.6-8.5 8.6-8.5h-6.48l-8.6 8.5zM805.9 84.44l-8.58 8.5h-6.48l8.6-8.5-8.6-8.5h6.48l8.6 8.5zM771.56 75.94h15.63c.5 0 .76.25.76.76v15.47c0 .5-.26.77-.77.77h-15.64c-.52 0-.78-.26-.78-.77V76.7c0-.5.26-.76.78-.76z" stroke="#000" stroke-opacity="0" fill="#fff"/><use xlink:href="#e" transform="matrix(1,0,0,1,729.3756041831444,133.8984375) translate(-23.98148148148148 17.77777777777778)"/><path d="M570.17 417.8l-8.5-14.6c-.66-1.17-1.8-1.83-3.17-1.86h-16.92c-1.36.03-2.5.7-3.17 1.87l-8.5 14.56c-.65 1.14-.65 2.46 0 3.63l8.5 14.66c.67 1.2 1.78 1.9 3.18 1.95h16.92c1.36-.03 2.5-.73 3.17-1.94l8.5-14.56c.66-1.2.66-2.53 0-3.7z" stroke="#000" stroke-opacity="0" fill="#4285f4"/><path d="M567.72 425.66l-13.94-13.8-1 2.14-2.17-2.14-1 2.14-2.13-2.14-.54 2.58-1.92.32-.37 1.67-2.48.6 2.22 2.2-2.2.94 2.2 2.17-2.22.96L557 438h1.5c1.37-.06 2.52-.74 3.2-1.94z" stroke="#000" stroke-opacity="0" fill-opacity=".07"/><path d="M551.9 417.47h-3.66c-.22 0-.4.17-.4.38v3.64c0 .2.18.38.4.38h3.67c.23 0 .4-.18.4-.4v-3.63c0-.2-.18-.38-.4-.38" stroke="#000" stroke-opacity="0" fill="#fff"/><path d="M557.74 417.17c.2 0 .35-.15.35-.35v-.56c0-.2-.17-.35-.36-.35h-1.8v-1.65c0-.22-.17-.4-.38-.4h-1.68v-1.75c0-.2-.16-.35-.36-.35h-.57c-.2 0-.34.16-.34.35v1.77h-1.88v-1.77c0-.2-.17-.35-.37-.35h-.56c-.2 0-.36.16-.36.35v1.77h-1.9v-1.77c0-.2-.15-.35-.34-.35h-.56c-.2 0-.35.16-.35.35v1.77h-1.7c-.2 0-.38.16-.38.38v1.65h-1.8c-.2 0-.35.16-.35.35v.57c0 .2.16.35.36.35h1.8v1.85h-1.8c-.2 0-.36.16-.36.35v.6c0 .18.16.33.36.33h1.8v1.87h-1.8c-.2 0-.36.16-.36.35v.57c0 .18.16.33.36.33h1.8v1.66c0 .2.15.37.37.37h1.7v1.78c0 .2.13.34.34.34h.56c.2 0 .35-.16.35-.35v-1.78h1.9v1.78c0 .2.15.34.34.34h.55c.2 0 .36-.16.36-.35v-1.78h1.9v1.78c0 .2.17.34.36.34h.58c.2 0 .35-.16.35-.35v-1.78h1.67c.2-.02.37-.17.37-.38v-1.67h1.8c.2 0 .35-.16.35-.35v-.56c0-.2-.17-.35-.36-.35h-1.8v-1.87h1.8c.2 0 .35-.15.35-.34v-.57-.03c0-.2-.17-.35-.36-.35h-1.8v-1.85h1.8zm-3.1 7.02h-9.1v-9.03h9.1z" stroke="#000" stroke-opacity="0" fill="#fff"/><use xlink:href="#f" transform="matrix(1,0,0,1,529.4150680332887,443.00515625) translate(-3.4259259259259167 12.666666666666666)"/><path d="M570.1 299.16l-9.9-16.98c-.77-1.37-2.1-2.14-3.7-2.18h-19.68c-1.58.04-2.92.8-3.7 2.18l-9.88 16.94c-.77 1.32-.77 2.86 0 4.22l9.9 17.07c.76 1.42 2.05 2.23 3.68 2.27h19.68c1.6-.04 2.93-.85 3.7-2.26l9.9-16.93c.76-1.4.76-2.95 0-4.3z" stroke="#000" stroke-opacity="0" fill="#4285f4"/><path d="M552.53 293.34l-9.47 2.9-2.18 1.27 3.17 3.1-4.3.28.08 4-2.4 3 14.92 14.78h4.16c1.6-.06 2.95-.85 3.73-2.26l7.16-12.34z" stroke="#000" stroke-opacity="0" fill-opacity=".07"/><path d="M545.9 297.25h1.5v8.07h-1.5v-8.07zM539.52 300.96h1.15v4.82h-1.5v-4.47c0-.2.15-.34.35-.34zM552.66 300.96h1.15c.2 0 .36.15.36.35v4.48h-1.5v-4.82z" stroke="#000" stroke-opacity="0" fill="#fff"/><path d="M539.54 300.22h14.24c.2 0 .38.16.38.37v1.1h-15v-1.1c0-.22.17-.38.38-.38zM541.03 293.17h11.27c.24 0 .36.12.36.36v3.73c0 .24-.12.36-.36.36h-11.27c-.24 0-.36-.12-.36-.36v-3.73c0-.24.12-.36.36-.36zM537.66 304.3h4.14c.24 0 .37.12.37.36v2.98c0 .24-.13.37-.37.37h-4.14c-.24 0-.37-.12-.37-.36v-2.98c0-.24.12-.36.36-.36zM551.52 304.3h4.14c.25 0 .37.12.37.36v2.98c0 .24-.12.37-.37.37h-4.14c-.24 0-.36-.12-.36-.36v-2.98c0-.24.12-.36.36-.36zM544.42 304.3h4.5c.24 0 .36.12.36.37v2.96c0 .25-.12.38-.37.38h-4.48c-.26 0-.38-.12-.38-.37v-2.96c0-.25.12-.37.38-.37z" stroke="#000" stroke-opacity="0" fill="#fff"/><path d="M680 349.33c0-1.1.9-2 2-2h136c1.1 0 2 .9 2 2v116c0 1.1-.9 2-2 2H682c-1.1 0-2-.9-2-2z" fill="#f9fbe7"/><use xlink:href="#d" transform="matrix(1,0,0,1,696,363.3287500000002) translate(0 14.637586805555557)"/><path d="M770.13 417.8l-8.5-14.6c-.66-1.17-1.8-1.83-3.17-1.86h-16.92c-1.36.03-2.5.7-3.17 1.87l-8.5 14.56c-.66 1.14-.66 2.46 0 3.63l8.5 14.66c.66 1.2 1.77 1.9 3.17 1.95h16.92c1.36-.03 2.5-.73 3.17-1.94l8.5-14.56c.66-1.2.66-2.53 0-3.7z" stroke="#000" stroke-opacity="0" fill="#4285f4"/><path d="M767.68 425.66l-13.94-13.8-1 2.14-2.17-2.14-1 2.14-2.14-2.14-.54 2.58-1.93.32-.38 1.67-2.5.6 2.23 2.2-2.2.94 2.2 2.17-2.22.96 14.87 14.7h1.5c1.36-.06 2.5-.74 3.18-1.94z" stroke="#000" stroke-opacity="0" fill-opacity=".07"/><path d="M751.87 417.47h-3.67c-.22 0-.4.17-.4.38v3.64c0 .2.18.38.4.38h3.67c.22 0 .38-.18.38-.4v-3.63c0-.2-.17-.38-.4-.38" stroke="#000" stroke-opacity="0" fill="#fff"/><path d="M757.7 417.17c.2 0 .35-.15.35-.35v-.56c0-.2-.16-.35-.35-.35h-1.8v-1.65c0-.22-.17-.4-.38-.4h-1.68v-1.75c0-.2-.16-.35-.36-.35h-.57c-.18 0-.33.16-.33.35v1.77h-1.9v-1.77c0-.2-.16-.35-.36-.35h-.55c-.2 0-.35.16-.35.35v1.77h-1.9v-1.77c0-.2-.15-.35-.34-.35h-.56c-.2 0-.35.16-.35.35v1.77h-1.68c-.2 0-.4.16-.4.38v1.65h-1.78c-.2 0-.37.16-.37.35v.57c0 .2.17.35.36.35h1.78v1.85h-1.8c-.18 0-.35.16-.35.35v.6c0 .18.17.33.36.33h1.78v1.87h-1.8c-.18 0-.35.16-.35.35v.57c0 .18.17.33.36.33h1.78v1.66c0 .2.16.37.4.37h1.67v1.78c0 .2.14.34.35.34h.56c.2 0 .35-.16.35-.35v-1.78h1.9v1.78c0 .2.16.34.35.34h.56c.2 0 .37-.16.37-.35v-1.78h1.9v1.78c0 .2.16.34.35.34h.58c.2 0 .35-.16.35-.35v-1.78h1.68c.2-.02.37-.17.37-.38v-1.67h1.8c.2 0 .35-.16.35-.35v-.56c0-.2-.16-.35-.35-.35h-1.8v-1.87h1.8c.2 0 .35-.15.35-.34v-.57-.03c0-.2-.16-.35-.35-.35h-1.8v-1.85h1.8zm-3.1 7.02h-9.1v-9.03h9.1z" stroke="#000" stroke-opacity="0" fill="#fff"/><use xlink:href="#g" transform="matrix(1,0,0,1,729.3756041831444,443.00515625) translate(-4.185185185185173 12.666666666666666)"/><path d="M557.46 556.46l-8.5-14.6c-.66-1.16-1.82-1.82-3.18-1.86h-16.9c-1.37.04-2.52.7-3.18 1.87l-8.5 14.56c-.66 1.13-.66 2.45 0 3.63l8.5 14.67c.66 1.2 1.77 1.9 3.17 1.94h16.9c1.37-.04 2.53-.73 3.2-1.94l8.5-14.56c.65-1.2.65-2.53 0-3.7z" stroke="#000" stroke-opacity="0" fill="#4285f4"/><path d="M555 564.32l-13.93-13.8-1 2.14-2.17-2.14-1 2.14-2.15-2.14-.53 2.6-1.92.3-.4 1.67-2.47.6 2.23 2.2-2.2.93 2.2 2.17-2.23.97 14.86 14.7h1.5c1.36-.06 2.5-.74 3.17-1.94z" stroke="#000" stroke-opacity="0" fill-opacity=".07"/><path d="M539.2 556.13h-3.67c-.22 0-.4.17-.4.38v3.65c0 .22.18.4.4.4h3.67c.22-.02.38-.2.38-.4v-3.64c0-.2-.17-.37-.4-.37" stroke="#000" stroke-opacity="0" fill="#fff"/><path d="M545.02 555.83c.2 0 .36-.14.36-.35v-.55c0-.2-.16-.35-.36-.35h-1.8v-1.66c0-.23-.17-.4-.37-.4h-1.7v-1.76c0-.2-.15-.35-.34-.35h-.56c-.2 0-.34.17-.34.36v1.77H538v-1.77c0-.2-.17-.35-.36-.35h-.56c-.2 0-.35.17-.35.36v1.77h-1.9v-1.77c0-.2-.15-.35-.34-.35h-.57c-.2 0-.36.17-.36.36v1.77h-1.68c-.22 0-.4.16-.4.4v1.63h-1.8c-.18 0-.34.16-.34.35v.58c0 .2.16.35.35.35h1.8v1.86h-1.8c-.18 0-.34.14-.34.33v.6c0 .18.16.34.35.34h1.8v1.87h-1.8c-.18 0-.34.16-.34.35v.56c0 .2.16.33.35.33h1.8v1.65c0 .2.17.38.4.38h1.67v1.78c0 .2.15.36.36.36h.56c.18 0 .34-.16.34-.35v-1.77h1.9v1.78c0 .2.15.36.34.36h.56c.2 0 .35-.16.35-.35v-1.77h1.9v1.78c0 .2.16.36.35.36h.58c.2 0 .35-.16.35-.35v-1.77h1.68c.2 0 .37-.17.37-.38v-1.66h1.8c.2 0 .35-.17.35-.36v-.55c0-.22-.16-.36-.36-.36h-1.8v-1.87h1.8c.2 0 .36-.16.36-.35v-.57-.02c0-.2-.16-.34-.36-.34h-1.8v-1.87h1.8zm-3.1 7.02h-9.1v-9.02h9.1z" stroke="#000" stroke-opacity="0" fill="#fff"/><use xlink:href="#h" transform="matrix(1,0,0,1,516.7033235171441,581.66953125) translate(-19.333333333333314 12.666666666666666)"/><path d="M670.13 556.46l-8.5-14.6c-.66-1.16-1.8-1.82-3.17-1.86h-16.92c-1.36.04-2.5.7-3.17 1.87l-8.5 14.56c-.66 1.13-.66 2.45 0 3.63l8.5 14.67c.66 1.2 1.77 1.9 3.17 1.94h16.92c1.36-.04 2.5-.73 3.17-1.94l8.5-14.56c.66-1.2.66-2.53 0-3.7z" stroke="#000" stroke-opacity="0" fill="#4285f4"/><path d="M667.68 564.32l-13.94-13.8-1 2.14-2.17-2.14-1 2.14-2.14-2.14-.54 2.6-1.93.3-.38 1.67-2.5.6 2.23 2.2-2.2.93 2.2 2.17-2.22.97 14.87 14.7h1.5c1.36-.06 2.5-.74 3.18-1.94z" stroke="#000" stroke-opacity="0" fill-opacity=".07"/><path d="M651.87 556.13h-3.67c-.22 0-.4.17-.4.38v3.65c0 .22.18.4.4.4h3.67c.22-.02.38-.2.38-.4v-3.64c0-.2-.17-.37-.4-.37" stroke="#000" stroke-opacity="0" fill="#fff"/><path d="M657.7 555.83c.2 0 .35-.14.35-.35v-.55c0-.2-.16-.35-.35-.35h-1.8v-1.66c0-.23-.17-.4-.38-.4h-1.68v-1.76c0-.2-.16-.35-.36-.35h-.57c-.18 0-.33.17-.33.36v1.77h-1.9v-1.77c0-.2-.16-.35-.36-.35h-.55c-.2 0-.35.17-.35.36v1.77h-1.9v-1.77c0-.2-.15-.35-.34-.35h-.56c-.2 0-.35.17-.35.36v1.77h-1.68c-.2 0-.4.16-.4.4v1.63h-1.78c-.2 0-.37.16-.37.35v.58c0 .2.17.35.36.35h1.78v1.86h-1.8c-.18 0-.35.14-.35.33v.6c0 .18.17.34.36.34h1.78v1.87h-1.8c-.18 0-.35.16-.35.35v.56c0 .2.17.33.36.33h1.78v1.65c0 .2.16.38.4.38h1.67v1.78c0 .2.14.36.35.36h.56c.2 0 .35-.16.35-.35v-1.77h1.9v1.78c0 .2.16.36.35.36h.56c.2 0 .37-.16.37-.35v-1.77h1.9v1.78c0 .2.16.36.35.36h.58c.2 0 .35-.16.35-.35v-1.77h1.68c.2 0 .37-.17.37-.38v-1.66h1.8c.2 0 .35-.17.35-.36v-.55c0-.22-.16-.36-.35-.36h-1.8v-1.87h1.8c.2 0 .35-.16.35-.35v-.57-.02c0-.2-.16-.34-.35-.34h-1.8v-1.87h1.8zm-3.1 7.02h-9.1v-9.02h9.1z" stroke="#000" stroke-opacity="0" fill="#fff"/><use xlink:href="#i" transform="matrix(1,0,0,1,629.3756041831444,581.66953125) translate(6.5555555555555625 12.666666666666666)"/><path d="M770.13 556.46l-8.5-14.6c-.66-1.16-1.8-1.82-3.17-1.86h-16.92c-1.36.04-2.5.7-3.17 1.87l-8.5 14.56c-.66 1.13-.66 2.45 0 3.63l8.5 14.67c.66 1.2 1.77 1.9 3.17 1.94h16.92c1.36-.04 2.5-.73 3.17-1.94l8.5-14.56c.66-1.2.66-2.53 0-3.7z" stroke="#000" stroke-opacity="0" fill="#4285f4"/><path d="M767.68 564.32l-13.94-13.8-1 2.14-2.17-2.14-1 2.14-2.14-2.14-.54 2.6-1.93.3-.38 1.67-2.5.6 2.23 2.2-2.2.93 2.2 2.17-2.22.97 14.87 14.7h1.5c1.36-.06 2.5-.74 3.18-1.94z" stroke="#000" stroke-opacity="0" fill-opacity=".07"/><path d="M751.87 556.13h-3.67c-.22 0-.4.17-.4.38v3.65c0 .22.18.4.4.4h3.67c.22-.02.38-.2.38-.4v-3.64c0-.2-.17-.37-.4-.37" stroke="#000" stroke-opacity="0" fill="#fff"/><path d="M757.7 555.83c.2 0 .35-.14.35-.35v-.55c0-.2-.16-.35-.35-.35h-1.8v-1.66c0-.23-.17-.4-.38-.4h-1.68v-1.76c0-.2-.16-.35-.36-.35h-.57c-.18 0-.33.17-.33.36v1.77h-1.9v-1.77c0-.2-.16-.35-.36-.35h-.55c-.2 0-.35.17-.35.36v1.77h-1.9v-1.77c0-.2-.15-.35-.34-.35h-.56c-.2 0-.35.17-.35.36v1.77h-1.68c-.2 0-.4.16-.4.4v1.63h-1.78c-.2 0-.37.16-.37.35v.58c0 .2.17.35.36.35h1.78v1.86h-1.8c-.18 0-.35.14-.35.33v.6c0 .18.17.34.36.34h1.78v1.87h-1.8c-.18 0-.35.16-.35.35v.56c0 .2.17.33.36.33h1.78v1.65c0 .2.16.38.4.38h1.67v1.78c0 .2.14.36.35.36h.56c.2 0 .35-.16.35-.35v-1.77h1.9v1.78c0 .2.16.36.35.36h.56c.2 0 .37-.16.37-.35v-1.77h1.9v1.78c0 .2.16.36.35.36h.58c.2 0 .35-.16.35-.35v-1.77h1.68c.2 0 .37-.17.37-.38v-1.66h1.8c.2 0 .35-.17.35-.36v-.55c0-.22-.16-.36-.35-.36h-1.8v-1.87h1.8c.2 0 .35-.16.35-.35v-.57-.02c0-.2-.16-.34-.35-.34h-1.8v-1.87h1.8zm-3.1 7.02h-9.1v-9.02h9.1z" stroke="#000" stroke-opacity="0" fill="#fff"/><use xlink:href="#j" transform="matrix(1,0,0,1,729.3756041831444,581.66953125) translate(-10.037037037037024 12.666666666666666)"/><path d="M776.8 323.82l-9.9-17c-.76-1.35-2.1-2.12-3.68-2.16h-19.68c-1.6.04-2.93.8-3.7 2.17l-9.9 16.94c-.76 1.33-.76 2.86 0 4.23l9.9 17.07c.77 1.4 2.06 2.22 3.7 2.26h19.68c1.58-.04 2.92-.85 3.7-2.26l9.88-16.94c.77-1.4.77-2.95 0-4.3z" stroke="#000" stroke-opacity="0" fill="#4285f4"/><path d="M759.24 318l-9.46 2.9-2.2 1.26 3.18 3.1-4.3.28.08 4-2.4 3 14.92 14.78h4.17c1.58-.06 2.93-.85 3.7-2.26l7.17-12.34z" stroke="#000" stroke-opacity="0" fill-opacity=".07"/><path d="M752.62 321.9h1.5V330h-1.5v-8.07zM746.23 325.62h1.15v4.82h-1.5v-4.48c0-.2.16-.34.35-.34zM759.37 325.62h1.15c.2 0 .35.15.35.34v4.48h-1.5v-4.82z" stroke="#000" stroke-opacity="0" fill="#fff"/><path d="M746.25 324.87h14.24c.2 0 .37.17.37.38v1.1h-15v-1.1c0-.2.17-.38.38-.38zM747.74 317.83H759c.25 0 .37.12.37.36v3.72c0 .24-.12.36-.36.36h-11.26c-.24 0-.36-.12-.36-.36v-3.73c0-.25.12-.37.36-.37zM744.37 328.96h4.14c.26 0 .38.12.38.36v2.98c0 .24-.12.36-.37.36h-4.13c-.24 0-.36-.12-.36-.36v-2.98c0-.24.13-.36.37-.36zM758.24 328.96h4.14c.24 0 .36.12.36.36v2.98c0 .24-.12.36-.36.36h-4.14c-.25 0-.37-.12-.37-.36v-2.98c0-.24.12-.36.37-.36zM751.13 328.96h4.5c.24 0 .37.12.37.37v2.96c0 .24-.13.36-.38.36h-4.5c-.24 0-.37-.12-.37-.37v-2.97c0-.25.13-.37.38-.37z" stroke="#000" stroke-opacity="0" fill="#fff"/><path d="M912 335c0-16.57 13.43-30 30-30h320c16.57 0 30 13.43 30 30v308c0 16.57-13.43 30-30 30H942c-16.57 0-30-13.43-30-30z" stroke="#474747" fill-opacity="0"/><path d="M1020 307.4v3.54c0 6.42-7.1 13.06-15.76 13.06h-46.48c-8.66 0-15.75-6.64-15.75-13.06v-3.53z" fill="#9d5125"/><path d="M972.03 273c8.03 0 14.82 4.4 18.17 11.67 4.6-3.14 10.92-1.98 14.04 2.65 1.17 1.64 1.7 3.33 1.8 5.3 7.87.68 13.95 8.25 13.95 14.27v1.3c0 6.45-7.1 13-15.76 13h-46.5c-8.64 0-15.74-6.55-15.74-13v-1.3c0-5.02 4.2-11.87 10.06-13.55v-.58c.08-10.95 8.97-19.82 19.97-19.77z" fill="#f58535"/><path d="M961.54 296.13l-5.2 18.2h3.04l1.17-4.43h5.38l1.1 4.43h3.05l-4.8-18.2zm-.47 11.4l2.22-8.98 2.1 8.97zM983.2 310.34h-.03l-2.47-14.2h-3.1l-2.4 14.13h-.06l-2.4-14.14h-2.95l3.53 18.2h3.38l2.35-13.7h.06l2.36 13.7h3.4l3.64-18.2h-2.9l-2.4 14.2zM997.9 304.4l-1.98-.72c-1.93-.7-2.74-1.53-2.74-3.1-.17-1.26.74-2.43 2-2.6.16-.02.3-.02.45-.02 1.26-.17 2.4.72 2.58 1.96.04.25.03.44 0 .68v.38h2.93v-.4c0-1.88-.5-4.8-5.18-4.8-3.44 0-5.7 1.84-5.7 5.16 0 2.6 1.1 3.97 3.82 5l2 .68c1.6.23 2.73 1.6 2.64 3.2.04 1.45-1.08 2.64-2.5 2.68h-.28c-2 0-3-1.12-3-3.33v-.47h-2.9v.44c0 2.54 1.02 5.53 5.52 5.53 3.7 0 6.07-1.6 6.07-5.48.04-2.5-1.1-3.9-3.7-4.8z" fill="#fff"/><use xlink:href="#k" transform="matrix(1,0,0,1,912,643.0008593749999) translate(119.10493827160494 11.11111111111111)"/><use xlink:href="#l" transform="matrix(1,0,0,1,912,643.0008593749999) translate(164.72222222222223 11.11111111111111)"/><use xlink:href="#m" transform="matrix(1,0,0,1,912,643.0008593749999) translate(223.91975308641975 11.11111111111111)"/><use xlink:href="#n" transform="matrix(1,0,0,1,912,643.0008593749999) translate(237.43827160493828 11.11111111111111)"/><path d="M1095.85 332.32l-6.52-6.48-6.5 6.48-1.9-1.83 7.47-7.44c.5-.5 1.35-.5 1.85 0h.02l7.44 7.43z" stroke="#fff" stroke-opacity="0" fill="#d86613"/><path d="M1088.03 323.98h2.6v14h-2.6v-14zM1089.33 381.34c-.35 0-.67-.13-.92-.38l-7.46-7.43 1.87-1.84 6.53 6.48 6.52-6.5 1.84 1.85-7.47 7.43c-.25.25-.55.37-.9.38z" stroke="#fff" stroke-opacity="0" fill="#d86613"/><path d="M1088.03 366.02h2.6v14.02h-2.6v-14.02zM1096.64 361.48h-14.62c-1.2 0-2.2-.98-2.2-2.2v-14.55c0-1.2 1-2.2 2.2-2.2h14.62c1.22 0 2.2 1 2.2 2.2v14.55c0 1.22-.98 2.2-2.2 2.2zm-14.22-2.6h13.82v-13.75h-13.82z" stroke="#fff" stroke-opacity="0" fill="#d86613"/><path d="M1081 340.33h2.6v3.5h-2.6v-3.5zM1085.68 340.33h2.6v3.5h-2.6v-3.5zM1090.38 340.33h2.6v3.5h-2.6v-3.5zM1095.07 340.33h2.6v3.5h-2.6v-3.5zM1081 360.18h2.6v3.5h-2.6v-3.5zM1085.68 360.18h2.6v3.5h-2.6v-3.5zM1090.38 360.18h2.6v3.5h-2.6v-3.5zM1095.07 360.18h2.6v3.5h-2.6v-3.5z" stroke="#fff" stroke-opacity="0" fill="#d86613"/><path d="M1077.6 357.72h3.52v2.6h-3.52v-2.6zM1077.6 353.05h3.52v2.6h-3.52v-2.6zM1077.6 348.37h3.52v2.6h-3.52v-2.6zM1077.6 343.7h3.52v2.6h-3.52v-2.6zM1097.55 357.72h3.52v2.6h-3.52v-2.6zM1097.55 353.05h3.52v2.6h-3.52v-2.6zM1097.55 348.37h3.52v2.6h-3.52v-2.6zM1097.55 343.7h3.52v2.6h-3.52v-2.6zM1067.46 360.44l-1.85-1.85 6.52-6.48-6.5-6.5 1.84-1.83 7.45 7.42c.53.5.53 1.3.02 1.83v.02z" stroke="#fff" stroke-opacity="0" fill="#d86613"/><path d="M1060 350.7h14.08v2.6H1060v-2.6zM1111.2 360.44l-7.46-7.43c-.5-.5-.5-1.33 0-1.83l7.46-7.43 1.85 1.77-6.52 6.5 6.52 6.5z" stroke="#fff" stroke-opacity="0" fill="#d86613"/><path d="M1104.58 350.7h14.08v2.6h-14.08v-2.6z" stroke="#fff" stroke-opacity="0" fill="#d86613"/><path d="M1089.25 323.3l28.93 28.78-28.93 28.8-28.92-28.8 28.92-28.8z" stroke="#fff" stroke-opacity="0" stroke-width=".22" fill="#fff" fill-opacity="0"/><use xlink:href="#o" transform="matrix(1,0,0,1,1030,390.3356250000512) translate(-14.006172839506164 14.222222222222221)"/><path d="M1037.2 491l-6.54-6.5-6.5 6.5-1.9-1.85 7.48-7.43c.5-.5 1.34-.5 1.84 0h.02l7.45 7.43z" stroke="#fff" stroke-opacity="0" fill="#d86613"/><path d="M1029.36 482.64h2.6v14.02h-2.6v-14.02zM1030.67 540c-.36 0-.68-.13-.93-.38l-7.47-7.43 1.88-1.84 6.52 6.5 6.5-6.5 1.85 1.83-7.45 7.42c-.25.25-.55.37-.9.38z" stroke="#fff" stroke-opacity="0" fill="#d86613"/><path d="M1029.36 524.7h2.6v14h-2.6v-14zM1037.98 520.14h-14.62c-1.22 0-2.2-.98-2.2-2.2V503.4c0-1.22.98-2.2 2.2-2.2h14.62c1.2 0 2.2.98 2.2 2.2v14.55c0 1.2-1 2.2-2.2 2.2zm-14.22-2.6h13.82V503.8h-13.82z" stroke="#fff" stroke-opacity="0" fill="#d86613"/><path d="M1022.32 499h2.6v3.5h-2.6V499zM1027.02 499h2.6v3.5h-2.6V499zM1031.7 499h2.62v3.5h-2.6V499zM1036.4 499h2.6v3.5h-2.6V499zM1022.32 518.85h2.6v3.5h-2.6v-3.5zM1027.02 518.85h2.6v3.5h-2.6v-3.5zM1031.7 518.85h2.62v3.5h-2.6v-3.5zM1036.4 518.85h2.6v3.5h-2.6v-3.5z" stroke="#fff" stroke-opacity="0" fill="#d86613"/><path d="M1018.93 516.38h3.52v2.6h-3.52v-2.6zM1018.93 511.7h3.52v2.6h-3.52v-2.6zM1018.93 507.04h3.52v2.6h-3.52v-2.6zM1018.93 502.37h3.52v2.6h-3.52v-2.6zM1038.88 516.38h3.52v2.6h-3.52v-2.6zM1038.88 511.7h3.52v2.6h-3.52v-2.6zM1038.88 507.04h3.52v2.6h-3.52v-2.6zM1038.88 502.37h3.52v2.6h-3.52v-2.6zM1008.8 519.1l-1.86-1.84 6.52-6.48-6.52-6.5 1.85-1.82 7.45 7.42c.5.5.5 1.32 0 1.83v.03z" stroke="#fff" stroke-opacity="0" fill="#d86613"/><path d="M1001.34 509.37h14.08v2.6h-14.08v-2.6zM1052.54 519.1l-7.46-7.43c-.52-.5-.52-1.33 0-1.83v-.02l7.46-7.4 1.84 1.76-6.5 6.5 6.5 6.47z" stroke="#fff" stroke-opacity="0" fill="#d86613"/><path d="M1045.92 509.37H1060v2.6h-14.08v-2.6z" stroke="#fff" stroke-opacity="0" fill="#d86613"/><path d="M1030.6 481.95l28.9 28.8-28.9 28.8-28.93-28.8 28.92-28.8z" stroke="#fff" stroke-opacity="0" stroke-width=".22" fill="#fff" fill-opacity="0"/><use xlink:href="#p" transform="matrix(1,0,0,1,971.3356249999488,549) translate(-15.018518518518505 14.222222222222221)"/><path d="M1162 481.34h59.34v59.33H1162v-59.33z" stroke="#fff" stroke-opacity="0" stroke-width="2" fill="#d86613"/><path d="M1209.87 513.38h-3.97v-1.58h3.97v-19h-19v3.96h-1.58v-3.96c0-.87.7-1.58 1.56-1.58h19c.87 0 1.58.7 1.58 1.58v19c0 .87-.7 1.58-1.57 1.58zM1192.46 530.78h-19c-.87 0-1.58-.7-1.58-1.57v-19c0-.86.7-1.57 1.58-1.57h3.96v1.57h-3.96v19h19v-3.96h1.57v3.97c0 .87-.7 1.58-1.57 1.58z" stroke="#fff" stroke-opacity="0" stroke-width="2" fill="#fff"/><path d="M1204.33 503.9v-1.6h-2.38c-.05-.84-.74-1.53-1.57-1.58v-2.38h-1.6v2.38h-2.35v-2.38h-1.6v2.38h-2.38v-2.38h-1.57v2.38h-2.37v-2.38h-1.56v2.38h-2.38v-2.38h-1.6v2.38c-.83.05-1.52.74-1.57 1.57h-2.4v1.6h2.4v2.37h-2.4v1.57h2.4v2.38h-2.4v1.57h2.4v2.37h-2.4v1.6h2.4v2.35h-2.4v1.6h2.4c.04.83.73 1.5 1.56 1.56v2.38h1.6v-2.38h2.38v2.38h1.57v-2.38h2.38v2.38h1.57v-2.38h2.38v2.38h1.6v-2.38h2.35v2.38h1.6v-2.38c.83-.05 1.52-.73 1.57-1.57h2.38v-1.58h-2.38v-2.36h2.38v-1.6h-2.38v-2.37h2.38v-1.58h-2.38v-2.38h2.38v-1.57h-2.38v-2.38zm-3.95 15.66c0 .07-.08.15-.15.15h-17.12c-.06 0-.14-.07-.14-.14v-17.1c0-.1.08-.17.15-.17h17.13c.07 0 .15.07.15.15z" stroke="#fff" stroke-opacity="0" stroke-width="2" fill="#fff"/><use xlink:href="#q" transform="matrix(1,0,0,1,1132.0034374999232,549.6678124999744) translate(19.037037037037038 14.222222222222221)"/><path d="M559.93 262.37h-2V95.12h2zm168.5-176.92h-134.6v-2h134.6z" fill="#5e5e5e"/><path d="M729.4 83.78l.1 1.67h-1.1v-2h1.04zM558.93 277.63l-4.64-14.26h9.26z" fill="#5e5e5e"/><path d="M558.93 280.87l-6-18.5h12zm-3.26-16.5l3.26 10.03 3.26-10.03z" fill="#5e5e5e"/><use xlink:href="#r" transform="matrix(1,0,0,1,538.5726518570046,73.78255208333333) translate(0 14.222222222222223)"/><path d="M981 261.5h-2V95.12h2zM830.34 85.45v-2h85.73v2z" fill="#5e5e5e"/><path d="M830.36 85.45h-1.1l.1-.58-.08-1.42h1.08zM980 276.76l-4.64-14.26h9.28z" fill="#5e5e5e"/><path d="M980 280l-6-18.5h12zm-3.26-16.5l3.26 10.03 3.26-10.03z" fill="#5e5e5e"/><g><use xlink:href="#s" transform="matrix(1,0,0,1,916.0707626241364,73.78255208333333) translate(0 14.222222222222223)"/><use xlink:href="#t" transform="matrix(1,0,0,1,916.0707626241364,73.78255208333333) translate(34.567901234567906 14.222222222222223)"/><use xlink:href="#u" transform="matrix(1,0,0,1,916.0707626241364,73.78255208333333) translate(45.38271604938272 14.222222222222223)"/></g><defs><path d="M561-1102c238-4 403 126 403 351v498c0 99 13 178 38 237V0H808c-11-21-19-59-26-114C696-25 593 20 474 20c-199 0-368-130-365-320 4-251 214-359 490-356h180v-85c-1-135-86-212-229-212-115 0-232 67-233 171H131c20-205 206-316 430-320zM294-326c0 117 90 185 207 185 122 0 239-75 278-162v-222H634c-227 0-340 66-340 199" id="v"/><path d="M1240-945c-141 0-250 95-250 227V0H804v-709c0-157-77-236-231-236-121 0-204 52-249 155V0H139v-1082h175l5 120c79-93 186-140 321-140 151 0 254 58 309 174 69-98 181-174 345-174 237 0 362 126 362 377V0h-185v-714c-2-159-67-231-231-231" id="w"/><path d="M599-131c141 0 220-65 285-146l113 88C906-50 770 20 589 20 281 21 93-214 93-545c0-223 93-397 233-485 74-48 154-72 240-72 300 2 449 218 445 537v77H278c0 197 129 357 321 357zm227-509c-3-180-88-310-260-310-170 0-264 140-282 310h542" id="x"/><path d="M663-916c-163-27-288 18-338 148V0H140v-1082h180l3 125c61-97 147-145 258-145 36 0 63 5 82 14v172" id="y"/><g id="a"><use transform="matrix(0.0087890625,0,0,0.0087890625,0,0)" xlink:href="#v"/><use transform="matrix(0.0087890625,0,0,0.0087890625,9.791015625,0)" xlink:href="#w"/><use transform="matrix(0.0087890625,0,0,0.0087890625,25.5673828125,0)" xlink:href="#x"/><use transform="matrix(0.0087890625,0,0,0.0087890625,35.103515625,0)" xlink:href="#y"/></g><path d="M525-543H37v-151h488v151" id="z"/><use transform="matrix(0.0087890625,0,0,0.0087890625,0,0)" xlink:href="#z" id="b"/><path d="M521 20C240 20 96-239 96-550c0-303 147-552 427-552 132 0 235 47 309 140l9-120h169V-26c4 277-183 454-459 452-165-1-334-81-400-187l96-111c79 98 176 147 291 147 180 1 288-109 286-290v-93C750-23 649 20 521 20zm48-965c-209 0-287 178-287 416 0 217 86 392 285 392 117 0 202-53 257-159v-494c-57-103-142-155-255-155" id="A"/><path d="M277-555c0 244 77 420 297 424 127 2 249-93 255-210h175C980-127 805 20 574 20 258 20 81-222 92-562c11-319 164-533 481-540 237-5 426 165 431 392H829c-7-133-115-242-256-240-209 4-296 166-296 395" id="B"/><path d="M632-1102c291 0 422 251 422 573 0 297-141 548-419 549-131 0-235-42-310-125v521H140v-1498h169l9 120c75-93 180-140 314-140zm-53 971c207 0 290-180 290-419 0-218-92-395-292-395-112 0-196 50-252 149v517c55 99 140 148 254 148" id="C"/><g id="c"><use transform="matrix(0.0087890625,0,0,0.0087890625,0,0)" xlink:href="#A"/><use transform="matrix(0.0087890625,0,0,0.0087890625,10.0986328125,0)" xlink:href="#B"/><use transform="matrix(0.0087890625,0,0,0.0087890625,19.5205078125,0)" xlink:href="#C"/></g><path d="M491 20c-241-1-355-148-355-398v-704h185v699c0 164 67 246 200 246 141 0 235-53 282-158v-787h185V0H812l-4-107C736-22 630 20 491 20" id="D"/><path d="M538-131c121 0 232-49 232-156 0-50-20-88-56-117-73-60-334-92-420-143-92-55-162-110-162-238 0-190 192-317 400-317 223 0 414 129 413 338H759c0-108-110-186-227-186-119 0-215 53-215 159 0 45 18 78 53 101 76 52 331 90 416 139 98 57 169 115 169 251C955-92 760 20 538 20c-176 0-314-68-386-174-38-55-57-115-57-179h185c6 129 116 202 258 202" id="E"/><path d="M1098-255l208-827h185L1176 0h-150L763-820 507 0H357L43-1082h184l213 810 252-810h149" id="F"/><path d="M456 20C285 20 205-92 206-268v-671H9v-143h197v-262h185v262h202v143H391v671c-9 125 92 149 207 118V0c-49 13-96 20-142 20" id="G"/><path d="M902-489h202v151H902V0H716v-338H53v-109l652-1009h197v967zm-639 0h453v-714l-22 40" id="H"/><path d="M634-1102c292 0 422 254 422 573 0 298-143 547-420 549-137 0-242-48-317-145L310 0H140v-1536h185v573c75-93 178-139 309-139zm-44 965c207 0 281-175 281-413 0-224-79-395-283-395-122 0-210 57-263 170v468c57 113 145 170 265 170" id="I"/><g id="d"><use transform="matrix(0.007703993055555556,0,0,0.007703993055555556,0,0)" xlink:href="#D"/><use transform="matrix(0.007703993055555556,0,0,0.007703993055555556,8.697808159722223,0)" xlink:href="#E"/><use transform="matrix(0.007703993055555556,0,0,0.007703993055555556,16.833224826388893,0)" xlink:href="#z"/><use transform="matrix(0.007703993055555556,0,0,0.007703993055555556,21.185980902777782,0)" xlink:href="#F"/><use transform="matrix(0.007703993055555556,0,0,0.007703993055555556,33.042426215277786,0)" xlink:href="#x"/><use transform="matrix(0.007703993055555556,0,0,0.007703993055555556,41.401258680555564,0)" xlink:href="#E"/><use transform="matrix(0.007703993055555556,0,0,0.007703993055555556,49.53667534722223,0)" xlink:href="#G"/><use transform="matrix(0.007703993055555556,0,0,0.007703993055555556,54.69064670138889,0)" xlink:href="#H"/><use transform="matrix(0.007703993055555556,0,0,0.007703993055555556,63.55023871527778,0)" xlink:href="#z"/><use transform="matrix(0.007703993055555556,0,0,0.007703993055555556,67.90299479166667,0)" xlink:href="#I"/></g><path fill="#333" d="M106-169C34-169 62-67 57 0H25v-261h32l-1 103c12-21 28-36 61-36 89 0 53 116 60 194h-32v-121c2-32-8-49-39-48" id="J"/><path fill="#333" d="M59-47c-2 24 18 29 38 22v24C64 9 27 4 27-40v-127H5v-23h24l9-43h21v43h35v23H59v120" id="K"/><path fill="#333" d="M115-194c55 1 70 41 70 98S169 2 115 4C84 4 66-9 55-30l1 105H24l-1-265h31l2 30c10-21 28-34 59-34zm-8 174c40 0 45-34 45-75s-6-73-45-74c-42 0-51 32-51 76 0 43 10 73 51 73" id="L"/><path fill="#333" d="M135-143c-3-34-86-38-87 0 15 53 115 12 119 90S17 21 10-45l28-5c4 36 97 45 98 0-10-56-113-15-118-90-4-57 82-63 122-42 12 7 21 19 24 35" id="M"/><path fill="#333" d="M33-154v-36h34v36H33zM33 0v-36h34V0H33" id="N"/><path fill="#333" d="M0 4l72-265h28L28 4H0" id="O"/><path fill="#333" d="M85-194c31 0 48 13 60 33l-1-100h32l1 261h-30c-2-10 0-23-3-31C134-8 116 4 85 4 32 4 16-35 15-94c0-66 23-100 70-100zm9 24c-40 0-46 34-46 75 0 40 6 74 45 74 42 0 51-32 51-76 0-42-9-74-50-73" id="P"/><path fill="#333" d="M210-169c-67 3-38 105-44 169h-31v-121c0-29-5-50-35-48C34-165 62-65 56 0H25l-1-190h30c1 10-1 24 2 32 10-44 99-50 107 0 11-21 27-35 58-36 85-2 47 119 55 194h-31v-121c0-29-5-49-35-48" id="Q"/><path fill="#333" d="M24 0v-261h32V0H24" id="R"/><path fill="#333" d="M96-169c-40 0-48 33-48 73s9 75 48 75c24 0 41-14 43-38l32 2c-6 37-31 61-74 61-59 0-76-41-82-99-10-93 101-131 147-64 4 7 5 14 7 22l-32 3c-4-21-16-35-41-35" id="S"/><path fill="#333" d="M33 0v-38h34V0H33" id="T"/><path fill="#333" d="M206 0h-36l-40-164L89 0H53L-1-190h32L70-26l43-164h34l41 164 42-164h31" id="U"/><g id="e"><use transform="matrix(0.06172839506172839,0,0,0.06172839506172839,0,0)" xlink:href="#J"/><use transform="matrix(0.06172839506172839,0,0,0.06172839506172839,12.345679012345679,0)" xlink:href="#K"/><use transform="matrix(0.06172839506172839,0,0,0.06172839506172839,18.51851851851852,0)" xlink:href="#K"/><use transform="matrix(0.06172839506172839,0,0,0.06172839506172839,24.691358024691358,0)" xlink:href="#L"/><use transform="matrix(0.06172839506172839,0,0,0.06172839506172839,37.03703703703704,0)" xlink:href="#M"/><use transform="matrix(0.06172839506172839,0,0,0.06172839506172839,48.14814814814815,0)" xlink:href="#N"/><use transform="matrix(0.06172839506172839,0,0,0.06172839506172839,54.320987654320994,0)" xlink:href="#O"/><use transform="matrix(0.06172839506172839,0,0,0.06172839506172839,60.49382716049384,0)" xlink:href="#O"/><use transform="matrix(0.06172839506172839,0,0,0.06172839506172839,66.66666666666667,0)" xlink:href="#P"/><use transform="matrix(0.06172839506172839,0,0,0.06172839506172839,79.01234567901236,0)" xlink:href="#Q"/><use transform="matrix(0.06172839506172839,0,0,0.06172839506172839,97.46913580246914,0)" xlink:href="#R"/><use transform="matrix(0.06172839506172839,0,0,0.06172839506172839,102.34567901234568,0)" xlink:href="#S"/><use transform="matrix(0.06172839506172839,0,0,0.06172839506172839,113.4567901234568,0)" xlink:href="#T"/><use transform="matrix(0.06172839506172839,0,0,0.06172839506172839,119.62962962962963,0)" xlink:href="#L"/><use transform="matrix(0.06172839506172839,0,0,0.06172839506172839,131.97530864197532,0)" xlink:href="#U"/></g><path fill="#333" d="M101-234c-31-9-42 10-38 44h38v23H63V0H32v-167H5v-23h27c-7-52 17-82 69-68v24" id="V"/><path fill="#333" d="M114-163C36-179 61-72 57 0H25l-1-190h30c1 12-1 29 2 39 6-27 23-49 58-41v29" id="W"/><path fill="#333" d="M100-194c62-1 85 37 85 99 1 63-27 99-86 99S16-35 15-95c0-66 28-99 85-99zM99-20c44 1 53-31 53-75 0-43-8-75-51-75s-53 32-53 75 10 74 51 75" id="X"/><path fill="#333" d="M117-194c89-4 53 116 60 194h-32v-121c0-31-8-49-39-48C34-167 62-67 57 0H25l-1-190h30c1 10-1 24 2 32 11-22 29-35 61-36" id="Y"/><path fill="#333" d="M100-194c63 0 86 42 84 106H49c0 40 14 67 53 68 26 1 43-12 49-29l28 8c-11 28-37 45-77 45C44 4 14-33 15-96c1-61 26-98 85-98zm52 81c6-60-76-77-97-28-3 7-6 17-6 28h103" id="Z"/><g id="f"><use transform="matrix(0.03703703703703702,0,0,0.03703703703703702,0,0)" xlink:href="#V"/><use transform="matrix(0.03703703703703702,0,0,0.03703703703703702,3.703703703703702,0)" xlink:href="#W"/><use transform="matrix(0.03703703703703702,0,0,0.03703703703703702,8.111111111111107,0)" xlink:href="#X"/><use transform="matrix(0.03703703703703702,0,0,0.03703703703703702,15.518518518518512,0)" xlink:href="#Y"/><use transform="matrix(0.03703703703703702,0,0,0.03703703703703702,22.925925925925917,0)" xlink:href="#K"/><use transform="matrix(0.03703703703703702,0,0,0.03703703703703702,26.62962962962962,0)" xlink:href="#Z"/><use transform="matrix(0.03703703703703702,0,0,0.03703703703703702,34.037037037037024,0)" xlink:href="#Y"/><use transform="matrix(0.03703703703703702,0,0,0.03703703703703702,41.44444444444443,0)" xlink:href="#P"/></g><path fill="#333" d="M115-194c53 0 69 39 70 98 0 66-23 100-70 100C84 3 66-7 56-30L54 0H23l1-261h32v101c10-23 28-34 59-34zm-8 174c40 0 45-34 45-75 0-40-5-75-45-74-42 0-51 32-51 76 0 43 10 73 51 73" id="aa"/><path fill="#333" d="M141-36C126-15 110 5 73 4 37 3 15-17 15-53c-1-64 63-63 125-63 3-35-9-54-41-54-24 1-41 7-42 31l-33-3c5-37 33-52 76-52 45 0 72 20 72 64v82c-1 20 7 32 28 27v20c-31 9-61-2-59-35zM48-53c0 20 12 33 32 33 41-3 63-29 60-74-43 2-92-5-92 41" id="ab"/><path fill="#333" d="M143 0L79-87 56-68V0H24v-261h32v163l83-92h37l-77 82L181 0h-38" id="ac"/><g id="g"><use transform="matrix(0.03703703703703702,0,0,0.03703703703703702,0,0)" xlink:href="#aa"/><use transform="matrix(0.03703703703703702,0,0,0.03703703703703702,7.407407407407404,0)" xlink:href="#ab"/><use transform="matrix(0.03703703703703702,0,0,0.03703703703703702,14.814814814814808,0)" xlink:href="#S"/><use transform="matrix(0.03703703703703702,0,0,0.03703703703703702,21.481481481481474,0)" xlink:href="#ac"/><use transform="matrix(0.03703703703703702,0,0,0.03703703703703702,28.148148148148135,0)" xlink:href="#Z"/><use transform="matrix(0.03703703703703702,0,0,0.03703703703703702,35.555555555555536,0)" xlink:href="#Y"/><use transform="matrix(0.03703703703703702,0,0,0.03703703703703702,42.96296296296295,0)" xlink:href="#P"/></g><path fill="#333" d="M16-82v-28h88v28H16" id="ad"/><g id="h"><use transform="matrix(0.03703703703703702,0,0,0.03703703703703702,0,0)" xlink:href="#P"/><use transform="matrix(0.03703703703703702,0,0,0.03703703703703702,7.407407407407404,0)" xlink:href="#aa"/><use transform="matrix(0.03703703703703702,0,0,0.03703703703703702,14.814814814814808,0)" xlink:href="#ad"/><use transform="matrix(0.03703703703703702,0,0,0.03703703703703702,19.222222222222214,0)" xlink:href="#S"/><use transform="matrix(0.03703703703703702,0,0,0.03703703703703702,25.88888888888888,0)" xlink:href="#ab"/><use transform="matrix(0.03703703703703702,0,0,0.03703703703703702,33.29629629629628,0)" xlink:href="#M"/><use transform="matrix(0.03703703703703702,0,0,0.03703703703703702,39.96296296296295,0)" xlink:href="#M"/><use transform="matrix(0.03703703703703702,0,0,0.03703703703703702,46.62962962962961,0)" xlink:href="#ab"/><use transform="matrix(0.03703703703703702,0,0,0.03703703703703702,54.03703703703702,0)" xlink:href="#Y"/><use transform="matrix(0.03703703703703702,0,0,0.03703703703703702,61.44444444444442,0)" xlink:href="#P"/><use transform="matrix(0.03703703703703702,0,0,0.03703703703703702,68.85185185185182,0)" xlink:href="#W"/><use transform="matrix(0.03703703703703702,0,0,0.03703703703703702,73.25925925925922,0)" xlink:href="#ab"/></g><g id="i"><use transform="matrix(0.03703703703703702,0,0,0.03703703703703702,0,0)" xlink:href="#M"/><use transform="matrix(0.03703703703703702,0,0,0.03703703703703702,6.666666666666663,0)" xlink:href="#Z"/><use transform="matrix(0.03703703703703702,0,0,0.03703703703703702,14.074074074074067,0)" xlink:href="#Z"/><use transform="matrix(0.03703703703703702,0,0,0.03703703703703702,21.481481481481474,0)" xlink:href="#P"/></g><path fill="#333" d="M24-231v-30h32v30H24zM24 0v-190h32V0H24" id="ae"/><path fill="#333" d="M177-190C167-65 218 103 67 71c-23-6-38-20-44-43l32-5c15 47 100 32 89-28v-30C133-14 115 1 83 1 29 1 15-40 15-95c0-56 16-97 71-98 29-1 48 16 59 35 1-10 0-23 2-32h30zM94-22c36 0 50-32 50-73 0-42-14-75-50-75-39 0-46 34-46 75s6 73 46 73" id="af"/><g id="j"><use transform="matrix(0.03703703703703702,0,0,0.03703703703703702,0,0)" xlink:href="#Q"/><use transform="matrix(0.03703703703703702,0,0,0.03703703703703702,11.074074074074069,0)" xlink:href="#X"/><use transform="matrix(0.03703703703703702,0,0,0.03703703703703702,18.481481481481474,0)" xlink:href="#Y"/><use transform="matrix(0.03703703703703702,0,0,0.03703703703703702,25.88888888888888,0)" xlink:href="#ae"/><use transform="matrix(0.03703703703703702,0,0,0.03703703703703702,28.814814814814802,0)" xlink:href="#K"/><use transform="matrix(0.03703703703703702,0,0,0.03703703703703702,32.518518518518505,0)" xlink:href="#X"/><use transform="matrix(0.03703703703703702,0,0,0.03703703703703702,39.92592592592591,0)" xlink:href="#W"/><use transform="matrix(0.03703703703703702,0,0,0.03703703703703702,44.333333333333314,0)" xlink:href="#ae"/><use transform="matrix(0.03703703703703702,0,0,0.03703703703703702,47.25925925925924,0)" xlink:href="#Y"/><use transform="matrix(0.03703703703703702,0,0,0.03703703703703702,54.66666666666664,0)" xlink:href="#af"/></g><g id="k"><use transform="matrix(0.06172839506172839,0,0,0.06172839506172839,0,0)" xlink:href="#ab"/><use transform="matrix(0.06172839506172839,0,0,0.06172839506172839,12.345679012345679,0)" xlink:href="#U"/><use transform="matrix(0.06172839506172839,0,0,0.06172839506172839,28.333333333333332,0)" xlink:href="#M"/></g><path fill="#333" d="M84 4C-5 8 30-112 23-190h32v120c0 31 7 50 39 49 72-2 45-101 50-169h31l1 190h-30c-1-10 1-25-2-33-11 22-28 36-60 37" id="ag"/><g id="l"><use transform="matrix(0.06172839506172839,0,0,0.06172839506172839,0,0)" xlink:href="#S"/><use transform="matrix(0.06172839506172839,0,0,0.06172839506172839,11.11111111111111,0)" xlink:href="#R"/><use transform="matrix(0.06172839506172839,0,0,0.06172839506172839,15.987654320987653,0)" xlink:href="#X"/><use transform="matrix(0.06172839506172839,0,0,0.06172839506172839,28.333333333333332,0)" xlink:href="#ag"/><use transform="matrix(0.06172839506172839,0,0,0.06172839506172839,40.67901234567901,0)" xlink:href="#P"/></g><use transform="matrix(0.06172839506172839,0,0,0.06172839506172839,0,0)" xlink:href="#ad" id="m"/><g id="n"><use transform="matrix(0.06172839506172839,0,0,0.06172839506172839,0,0)" xlink:href="#ag"/><use transform="matrix(0.06172839506172839,0,0,0.06172839506172839,12.345679012345679,0)" xlink:href="#M"/></g><g id="o"><use transform="matrix(0.049382716049382706,0,0,0.049382716049382706,0,0)" xlink:href="#V"/><use transform="matrix(0.049382716049382706,0,0,0.049382716049382706,4.93827160493827,0)" xlink:href="#W"/><use transform="matrix(0.049382716049382706,0,0,0.049382716049382706,10.814814814814813,0)" xlink:href="#X"/><use transform="matrix(0.049382716049382706,0,0,0.049382716049382706,20.691358024691354,0)" xlink:href="#Y"/><use transform="matrix(0.049382716049382706,0,0,0.049382716049382706,30.567901234567895,0)" xlink:href="#K"/><use transform="matrix(0.049382716049382706,0,0,0.049382716049382706,35.50617283950616,0)" xlink:href="#Z"/><use transform="matrix(0.049382716049382706,0,0,0.049382716049382706,45.38271604938271,0)" xlink:href="#Y"/><use transform="matrix(0.049382716049382706,0,0,0.049382716049382706,55.259259259259245,0)" xlink:href="#P"/><use transform="matrix(0.049382716049382706,0,0,0.049382716049382706,65.1358024691358,0)" xlink:href="#ad"/><use transform="matrix(0.049382716049382706,0,0,0.049382716049382706,71.01234567901234,0)" xlink:href="#ab"/><use transform="matrix(0.049382716049382706,0,0,0.049382716049382706,80.88888888888889,0)" xlink:href="#ag"/><use transform="matrix(0.049382716049382706,0,0,0.049382716049382706,90.76543209876543,0)" xlink:href="#K"/><use transform="matrix(0.049382716049382706,0,0,0.049382716049382706,95.7037037037037,0)" xlink:href="#X"/><use transform="matrix(0.049382716049382706,0,0,0.049382716049382706,105.58024691358025,0)" xlink:href="#M"/><use transform="matrix(0.049382716049382706,0,0,0.049382716049382706,114.46913580246914,0)" xlink:href="#S"/><use transform="matrix(0.049382716049382706,0,0,0.049382716049382706,123.358024691358,0)" xlink:href="#ab"/><use transform="matrix(0.049382716049382706,0,0,0.049382716049382706,133.23456790123456,0)" xlink:href="#R"/><use transform="matrix(0.049382716049382706,0,0,0.049382716049382706,137.1358024691358,0)" xlink:href="#Z"/></g><g id="p"><use transform="matrix(0.049382716049382706,0,0,0.049382716049382706,0,0)" xlink:href="#aa"/><use transform="matrix(0.049382716049382706,0,0,0.049382716049382706,9.87654320987654,0)" xlink:href="#ab"/><use transform="matrix(0.049382716049382706,0,0,0.049382716049382706,19.75308641975308,0)" xlink:href="#S"/><use transform="matrix(0.049382716049382706,0,0,0.049382716049382706,28.64197530864197,0)" xlink:href="#ac"/><use transform="matrix(0.049382716049382706,0,0,0.049382716049382706,37.53086419753085,0)" xlink:href="#Z"/><use transform="matrix(0.049382716049382706,0,0,0.049382716049382706,47.40740740740739,0)" xlink:href="#Y"/><use transform="matrix(0.049382716049382706,0,0,0.049382716049382706,57.28395061728394,0)" xlink:href="#P"/><use transform="matrix(0.049382716049382706,0,0,0.049382716049382706,67.16049382716048,0)" xlink:href="#ad"/><use transform="matrix(0.049382716049382706,0,0,0.049382716049382706,73.03703703703702,0)" xlink:href="#ab"/><use transform="matrix(0.049382716049382706,0,0,0.049382716049382706,82.91358024691357,0)" xlink:href="#ag"/><use transform="matrix(0.049382716049382706,0,0,0.049382716049382706,92.79012345679011,0)" xlink:href="#K"/><use transform="matrix(0.049382716049382706,0,0,0.049382716049382706,97.72839506172838,0)" xlink:href="#X"/><use transform="matrix(0.049382716049382706,0,0,0.049382716049382706,107.60493827160492,0)" xlink:href="#M"/><use transform="matrix(0.049382716049382706,0,0,0.049382716049382706,116.49382716049381,0)" xlink:href="#S"/><use transform="matrix(0.049382716049382706,0,0,0.049382716049382706,125.3827160493827,0)" xlink:href="#ab"/><use transform="matrix(0.049382716049382706,0,0,0.049382716049382706,135.25925925925924,0)" xlink:href="#R"/><use transform="matrix(0.049382716049382706,0,0,0.049382716049382706,139.16049382716048,0)" xlink:href="#Z"/></g><g id="q"><use transform="matrix(0.049382716049382706,0,0,0.049382716049382706,0,0)" xlink:href="#S"/><use transform="matrix(0.049382716049382706,0,0,0.049382716049382706,8.888888888888888,0)" xlink:href="#ab"/><use transform="matrix(0.049382716049382706,0,0,0.049382716049382706,18.76543209876543,0)" xlink:href="#M"/><use transform="matrix(0.049382716049382706,0,0,0.049382716049382706,27.654320987654316,0)" xlink:href="#M"/><use transform="matrix(0.049382716049382706,0,0,0.049382716049382706,36.5432098765432,0)" xlink:href="#ab"/><use transform="matrix(0.049382716049382706,0,0,0.049382716049382706,46.419753086419746,0)" xlink:href="#Y"/><use transform="matrix(0.049382716049382706,0,0,0.049382716049382706,56.29629629629628,0)" xlink:href="#P"/><use transform="matrix(0.049382716049382706,0,0,0.049382716049382706,66.17283950617283,0)" xlink:href="#W"/><use transform="matrix(0.049382716049382706,0,0,0.049382716049382706,72.04938271604938,0)" xlink:href="#ab"/></g><path fill="#333" d="M165-50V0h-47v-50H5v-38l105-160h55v161h33v37h-33zm-47-37l2-116L46-87h72" id="ah"/><path fill="#333" d="M128-127c34 4 56 21 59 58 7 91-148 94-172 28-4-9-6-17-7-26l51-5c1 24 16 35 40 36 23 0 39-12 38-36-1-31-31-36-65-34v-40c32 2 59-3 59-33 0-20-13-33-34-33s-33 13-35 32l-50-3c6-44 37-68 86-68 50 0 83 20 83 66 0 35-22 52-53 58" id="ai"/><path fill="#333" d="M35-132v-50h50v50H35zM35 0v-49h50V0H35" id="aj"/><path fill="#333" d="M138-131c27 9 52 24 51 61 0 53-36 74-89 74S11-19 11-69c0-35 22-54 51-61-78-25-46-121 38-121 51 0 83 19 83 66 0 30-18 49-45 54zm-38-16c24 0 32-13 32-36 1-23-11-34-32-34-22 0-33 12-32 34 0 22 9 36 32 36zm1 116c27 0 37-17 37-43 0-25-13-39-39-39-24 0-37 15-37 40 0 27 11 42 39 42" id="ak"/><path fill="#333" d="M101-251c68 0 84 54 84 127C185-50 166 4 99 4S15-52 14-124c-1-75 17-127 87-127zm-1 216c37-5 36-46 36-89s4-89-36-89c-39 0-36 45-36 89 0 43-3 85 36 89" id="al"/><g id="r"><use transform="matrix(0.04938271604938272,0,0,0.04938271604938272,0,0)" xlink:href="#ah"/><use transform="matrix(0.04938271604938272,0,0,0.04938271604938272,9.876543209876544,0)" xlink:href="#ah"/><use transform="matrix(0.04938271604938272,0,0,0.04938271604938272,19.75308641975309,0)" xlink:href="#ai"/><use transform="matrix(0.04938271604938272,0,0,0.04938271604938272,29.629629629629633,0)" xlink:href="#aj"/><use transform="matrix(0.04938271604938272,0,0,0.04938271604938272,35.50617283950618,0)" xlink:href="#ak"/><use transform="matrix(0.04938271604938272,0,0,0.04938271604938272,45.38271604938272,0)" xlink:href="#al"/></g><g id="s"><use transform="matrix(0.04938271604938272,0,0,0.04938271604938272,0,0)" xlink:href="#ah"/><use transform="matrix(0.04938271604938272,0,0,0.04938271604938272,9.876543209876544,0)" xlink:href="#ah"/><use transform="matrix(0.04938271604938272,0,0,0.04938271604938272,19.75308641975309,0)" xlink:href="#ai"/></g><use transform="matrix(0.04938271604938272,0,0,0.04938271604938272,0,0)" xlink:href="#aj" id="t"/><g id="u"><use transform="matrix(0.04938271604938272,0,0,0.04938271604938272,0,0)" xlink:href="#ak"/><use transform="matrix(0.04938271604938272,0,0,0.04938271604938272,9.876543209876544,0)" xlink:href="#al"/></g></defs></g></svg>