<svg xmlns="http://www.w3.org/2000/svg" xmlns:xlink="http://www.w3.org/1999/xlink" xmlns:lucid="lucid" width="1004.98" height="441.85"><g transform="translate(-15.018518518518519 0)" lucid:page-tab-id="0_0"><path d="M300 22c0-1.1.9-2 2-2h696c1.1 0 2 .9 2 2v179.33c0 1.1-.9 2-2 2H302c-1.1 0-2-.9-2-2z" fill="#eceff1"/><use xlink:href="#a" transform="matrix(1,0,0,1,316,36) translate(0 16.69921875)"/><use xlink:href="#b" transform="matrix(1,0,0,1,316,36) translate(45.650390625 16.69921875)"/><use xlink:href="#c" transform="matrix(1,0,0,1,316,36) translate(55.072265625 16.69921875)"/><path d="M380 70c0-1.1.9-2 2-2h136c1.1 0 2 .9 2 2v116c0 1.1-.9 2-2 2H382c-1.1 0-2-.9-2-2z" fill="#f9fbe7"/><use xlink:href="#d" transform="matrix(1,0,0,1,396,83.9965625000001) translate(0 14.637586805555557)"/><path d="M158.8 218.63l-20.6-35.4c-1.6-2.83-4.4-4.43-7.7-4.52h-41c-3.3.1-6.1 1.7-7.7 4.54l-20.6 35.3c-1.6 2.75-1.6 5.95 0 8.8l20.6 35.56c1.6 2.93 4.3 4.62 7.7 4.7h41c3.3-.08 6.1-1.77 7.7-4.7l20.6-35.3c1.6-2.93 1.6-6.13 0-8.97z" stroke="#000" stroke-opacity="0" fill="#4285f4"/><path d="M118.5 205.3l-9.06-3.2-8.03 9.68 5.5 5.44-3 2.8-5.5-5.36-9.87 7.93 3.44 8.96 36.34 36.02h2.24c3.32-.13 6.06-1.76 7.72-4.7l14.02-24.1z" stroke="#000" stroke-opacity="0" fill-opacity=".07"/><path d="M110 196.87l-8.6 8.5v6.42l8.6-8.5 8.58 8.5v-6.42l-8.58-8.5zM110 249.42l-8.6-8.5v-6.42l8.6 8.5 8.58-8.5v6.42l-8.58 8.5zM83.45 223.15l8.6 8.5h6.48l-8.6-8.5 8.6-8.5h-6.48l-8.6 8.5zM136.54 223.15l-8.6 8.5h-6.48l8.6-8.5-8.6-8.5h6.5l8.58 8.5zM102.18 214.65h15.63c.53 0 .78.25.78.76v15.48c0 .5-.25.77-.77.77H102.2c-.5 0-.77-.26-.77-.77V215.4c0-.5.27-.75.78-.75z" stroke="#000" stroke-opacity="0" fill="#fff"/><use xlink:href="#e" transform="matrix(1,0,0,1,60,272.6081498556694) translate(-23.98148148148148 17.77777777777778)"/><path d="M440.75 137.12l-8.5-14.6c-.65-1.16-1.8-1.82-3.17-1.86h-16.9c-1.37.04-2.53.7-3.2 1.87l-8.5 14.56c-.64 1.12-.64 2.44 0 3.62l8.5 14.67c.67 1.2 1.8 1.9 3.2 1.93h16.9c1.36-.04 2.52-.73 3.18-1.94l8.5-14.57c.65-1.2.65-2.53 0-3.7z" stroke="#000" stroke-opacity="0" fill="#4285f4"/><path d="M438.3 144.98l-13.93-13.8-1 2.14-2.17-2.14-1 2.14-2.15-2.14-.54 2.6-1.9.3-.4 1.67-2.47.6 2.23 2.2-2.2.94 2.2 2.16-2.23.97 14.86 14.7h1.5c1.36-.06 2.5-.74 3.17-1.95z" stroke="#000" stroke-opacity="0" fill-opacity=".07"/><path d="M422.5 136.8h-3.67c-.22 0-.4.16-.4.37v3.64c0 .23.18.4.4.4h3.67c.2 0 .38-.18.38-.4v-3.63c0-.2-.18-.38-.4-.38" stroke="#000" stroke-opacity="0" fill="#fff"/><path d="M428.32 136.5c.2 0 .35-.15.35-.36v-.55c0-.2-.16-.36-.35-.36h-1.8v-1.67c0-.22-.17-.4-.38-.4h-1.68v-1.75c0-.2-.16-.35-.35-.35h-.57c-.2 0-.33.16-.33.35v1.77h-1.9v-1.78c0-.2-.17-.35-.36-.35h-.56c-.2 0-.35.16-.35.35v1.77h-1.9v-1.78c0-.2-.15-.35-.35-.35h-.56c-.2 0-.35.16-.35.35v1.77h-1.68c-.22 0-.4.15-.4.37v1.65H413c-.18 0-.34.16-.34.35v.57c0 .2.16.35.35.35h1.8v1.84H413c-.18 0-.34.16-.34.35v.58c0 .2.16.35.35.35h1.8v1.87H413c-.18 0-.34.16-.34.35v.57c0 .2.16.33.35.33h1.8v1.66c0 .22.17.4.4.4h1.67v1.77c0 .2.14.35.35.35h.56c.2 0 .36-.16.36-.35v-1.78h1.9v1.77c0 .2.15.35.34.35h.56c.2 0 .35-.16.35-.35v-1.78h1.9v1.77c0 .2.16.35.35.35h.58c.2 0 .35-.16.35-.35v-1.78h1.68c.2-.02.37-.18.37-.4v-1.65h1.8c.18 0 .34-.16.34-.35v-.55c0-.2-.16-.35-.35-.35h-1.8v-1.87h1.8c.2 0 .35-.16.35-.35v-.57c0-.2-.16-.36-.35-.36h-1.8v-1.85h1.8zm-3.1 7h-9.1v-9h9.1z" stroke="#000" stroke-opacity="0" fill="#fff"/><use xlink:href="#f" transform="matrix(1,0,0,1,400.00000000000006,162.32875000000018) translate(-3.4259259259259167 12.666666666666666)"/><path d="M500.75 137.12l-8.5-14.6c-.65-1.16-1.8-1.82-3.17-1.86h-16.9c-1.37.04-2.53.7-3.2 1.87l-8.5 14.56c-.64 1.12-.64 2.44 0 3.62l8.5 14.67c.67 1.2 1.8 1.9 3.2 1.93h16.9c1.36-.04 2.52-.73 3.18-1.94l8.5-14.57c.65-1.2.65-2.53 0-3.7z" stroke="#000" stroke-opacity="0" fill="#4285f4"/><path d="M498.3 144.98l-13.93-13.8-1 2.14-2.17-2.14-1 2.14-2.15-2.14-.54 2.6-1.9.3-.4 1.67-2.47.6 2.23 2.2-2.2.94 2.2 2.16-2.23.97 14.86 14.7h1.5c1.36-.06 2.5-.74 3.17-1.95z" stroke="#000" stroke-opacity="0" fill-opacity=".07"/><path d="M482.5 136.8h-3.67c-.22 0-.4.16-.4.37v3.64c0 .23.18.4.4.4h3.67c.2 0 .38-.18.38-.4v-3.63c0-.2-.18-.38-.4-.38" stroke="#000" stroke-opacity="0" fill="#fff"/><path d="M488.32 136.5c.2 0 .35-.15.35-.36v-.55c0-.2-.16-.36-.35-.36h-1.8v-1.67c0-.22-.17-.4-.38-.4h-1.68v-1.75c0-.2-.16-.35-.35-.35h-.57c-.2 0-.33.16-.33.35v1.77h-1.9v-1.78c0-.2-.17-.35-.36-.35h-.56c-.2 0-.35.16-.35.35v1.77h-1.9v-1.78c0-.2-.15-.35-.35-.35h-.56c-.2 0-.35.16-.35.35v1.77h-1.68c-.22 0-.4.15-.4.37v1.65H473c-.18 0-.34.16-.34.35v.57c0 .2.16.35.35.35h1.8v1.84H473c-.18 0-.34.16-.34.35v.58c0 .2.16.35.35.35h1.8v1.87H473c-.18 0-.34.16-.34.35v.57c0 .2.16.33.35.33h1.8v1.66c0 .22.17.4.4.4h1.67v1.77c0 .2.14.35.35.35h.56c.2 0 .36-.16.36-.35v-1.78h1.9v1.77c0 .2.15.35.34.35h.56c.2 0 .35-.16.35-.35v-1.78h1.9v1.77c0 .2.16.35.35.35h.58c.2 0 .35-.16.35-.35v-1.78h1.68c.2-.02.37-.18.37-.4v-1.65h1.8c.18 0 .34-.16.34-.35v-.55c0-.2-.16-.35-.35-.35h-1.8v-1.87h1.8c.2 0 .35-.16.35-.35v-.57c0-.2-.16-.36-.35-.36h-1.8v-1.85h1.8zm-3.1 7h-9.1v-9h9.1z" stroke="#000" stroke-opacity="0" fill="#fff"/><use xlink:href="#f" transform="matrix(1,0,0,1,460.00000000000006,162.32875000000018) translate(-3.4259259259259167 12.666666666666666)"/><path d="M379.42 125.82l-9.88-16.98c-.77-1.37-2.12-2.14-3.7-2.18h-19.68c-1.58.04-2.93.8-3.7 2.18l-9.88 16.94c-.77 1.32-.77 2.86 0 4.22l9.88 17.07c.77 1.4 2.07 2.22 3.7 2.26h19.68c1.58-.04 2.93-.85 3.7-2.26l9.88-16.94c.77-1.4.77-2.94 0-4.3z" stroke="#000" stroke-opacity="0" fill="#4285f4"/><path d="M361.87 120l-9.47 2.9-2.2 1.27 3.2 3.1-4.32.27.1 4.02-2.4 3 14.9 14.76h4.17c1.6-.06 2.94-.85 3.7-2.26l7.17-12.34z" stroke="#000" stroke-opacity="0" fill-opacity=".07"/><path d="M355.25 123.9h1.5V132h-1.5v-8.07zM348.85 127.62H350v4.82h-1.5v-4.47c0-.2.16-.35.35-.35zM362 127.62h1.14c.2 0 .35.15.35.35v4.47H362v-4.82z" stroke="#000" stroke-opacity="0" fill="#fff"/><path d="M348.88 126.88h14.24c.2 0 .37.16.37.37v1.1h-15v-1.1c0-.2.17-.37.38-.37zM350.36 119.83h11.27c.24 0 .36.12.36.36v3.72c0 .24-.13.36-.37.36h-11.27c-.24 0-.36-.12-.36-.36v-3.73c0-.25.12-.37.36-.37zM347 130.96h4.14c.24 0 .36.12.36.36v2.98c0 .25-.12.37-.36.37H347c-.25 0-.37-.12-.37-.37v-2.98c0-.24.12-.36.37-.36zM360.86 130.96H365c.24 0 .37.12.37.36v2.98c0 .25-.13.37-.37.37h-4.14c-.24 0-.37-.12-.37-.37v-2.98c0-.24.12-.36.36-.36zM353.75 130.96h4.5c.24 0 .37.12.37.37v2.96c0 .24-.13.37-.38.37h-4.5c-.24 0-.37-.13-.37-.38v-2.97c0-.25.13-.37.38-.37z" stroke="#000" stroke-opacity="0" fill="#fff"/><path d="M594 70c0-1.1.9-2 2-2h136c1.1 0 2 .9 2 2v116c0 1.1-.9 2-2 2H596c-1.1 0-2-.9-2-2z" fill="#f9fbe7"/><use xlink:href="#d" transform="matrix(1,0,0,1,610,83.9965625000001) translate(0 14.637586805555557)"/><path d="M654.75 137.12l-8.5-14.6c-.65-1.16-1.8-1.82-3.17-1.86h-16.9c-1.37.04-2.53.7-3.2 1.87l-8.5 14.56c-.64 1.12-.64 2.44 0 3.62l8.5 14.67c.67 1.2 1.8 1.9 3.2 1.93h16.9c1.36-.04 2.52-.73 3.18-1.94l8.5-14.57c.65-1.2.65-2.53 0-3.7z" stroke="#000" stroke-opacity="0" fill="#4285f4"/><path d="M652.3 144.98l-13.93-13.8-1 2.14-2.17-2.14-1 2.14-2.15-2.14-.54 2.6-1.9.3-.4 1.67-2.47.6 2.23 2.2-2.2.94 2.2 2.16-2.23.97 14.86 14.7h1.5c1.36-.06 2.5-.74 3.17-1.95z" stroke="#000" stroke-opacity="0" fill-opacity=".07"/><path d="M636.5 136.8h-3.67c-.22 0-.4.16-.4.37v3.64c0 .23.18.4.4.4h3.67c.2 0 .38-.18.38-.4v-3.63c0-.2-.18-.38-.4-.38" stroke="#000" stroke-opacity="0" fill="#fff"/><path d="M642.32 136.5c.2 0 .35-.15.35-.36v-.55c0-.2-.16-.36-.35-.36h-1.8v-1.67c0-.22-.17-.4-.38-.4h-1.68v-1.75c0-.2-.16-.35-.35-.35h-.57c-.2 0-.33.16-.33.35v1.77h-1.9v-1.78c0-.2-.17-.35-.36-.35h-.56c-.2 0-.35.16-.35.35v1.77h-1.9v-1.78c0-.2-.15-.35-.35-.35h-.56c-.2 0-.35.16-.35.35v1.77h-1.68c-.22 0-.4.15-.4.37v1.65H627c-.18 0-.34.16-.34.35v.57c0 .2.16.35.35.35h1.8v1.84H627c-.18 0-.34.16-.34.35v.58c0 .2.16.35.35.35h1.8v1.87H627c-.18 0-.34.16-.34.35v.57c0 .2.16.33.35.33h1.8v1.66c0 .22.17.4.4.4h1.67v1.77c0 .2.14.35.35.35h.56c.2 0 .36-.16.36-.35v-1.78h1.9v1.77c0 .2.15.35.34.35h.56c.2 0 .35-.16.35-.35v-1.78h1.9v1.77c0 .2.16.35.35.35h.58c.2 0 .35-.16.35-.35v-1.78h1.68c.2-.02.37-.18.37-.4v-1.65h1.8c.18 0 .34-.16.34-.35v-.55c0-.2-.16-.35-.35-.35h-1.8v-1.87h1.8c.2 0 .35-.16.35-.35v-.57c0-.2-.16-.36-.35-.36h-1.8v-1.85h1.8zm-3.1 7h-9.1v-9h9.1z" stroke="#000" stroke-opacity="0" fill="#fff"/><use xlink:href="#g" transform="matrix(1,0,0,1,614.0000000000001,162.32875000000018) translate(-4.185185185185173 12.666666666666666)"/><path d="M714.75 137.12l-8.5-14.6c-.65-1.16-1.8-1.82-3.17-1.86h-16.9c-1.37.04-2.53.7-3.2 1.87l-8.5 14.56c-.64 1.12-.64 2.44 0 3.62l8.5 14.67c.67 1.2 1.8 1.9 3.2 1.93h16.9c1.36-.04 2.52-.73 3.18-1.94l8.5-14.57c.65-1.2.65-2.53 0-3.7z" stroke="#000" stroke-opacity="0" fill="#4285f4"/><path d="M712.3 144.98l-13.93-13.8-1 2.14-2.17-2.14-1 2.14-2.15-2.14-.54 2.6-1.9.3-.4 1.67-2.47.6 2.23 2.2-2.2.94 2.2 2.16-2.23.97 14.86 14.7h1.5c1.36-.06 2.5-.74 3.17-1.95z" stroke="#000" stroke-opacity="0" fill-opacity=".07"/><path d="M696.5 136.8h-3.67c-.22 0-.4.16-.4.37v3.64c0 .23.18.4.4.4h3.67c.2 0 .38-.18.38-.4v-3.63c0-.2-.18-.38-.4-.38" stroke="#000" stroke-opacity="0" fill="#fff"/><path d="M702.32 136.5c.2 0 .35-.15.35-.36v-.55c0-.2-.16-.36-.35-.36h-1.8v-1.67c0-.22-.17-.4-.38-.4h-1.68v-1.75c0-.2-.16-.35-.35-.35h-.57c-.2 0-.33.16-.33.35v1.77h-1.9v-1.78c0-.2-.17-.35-.36-.35h-.56c-.2 0-.35.16-.35.35v1.77h-1.9v-1.78c0-.2-.15-.35-.35-.35h-.56c-.2 0-.35.16-.35.35v1.77h-1.68c-.22 0-.4.15-.4.37v1.65H687c-.18 0-.34.16-.34.35v.57c0 .2.16.35.35.35h1.8v1.84H687c-.18 0-.34.16-.34.35v.58c0 .2.16.35.35.35h1.8v1.87H687c-.18 0-.34.16-.34.35v.57c0 .2.16.33.35.33h1.8v1.66c0 .22.17.4.4.4h1.67v1.77c0 .2.14.35.35.35h.56c.2 0 .36-.16.36-.35v-1.78h1.9v1.77c0 .2.15.35.34.35h.56c.2 0 .35-.16.35-.35v-1.78h1.9v1.77c0 .2.16.35.35.35h.58c.2 0 .35-.16.35-.35v-1.78h1.68c.2-.02.37-.18.37-.4v-1.65h1.8c.18 0 .34-.16.34-.35v-.55c0-.2-.16-.35-.35-.35h-1.8v-1.87h1.8c.2 0 .35-.16.35-.35v-.57c0-.2-.16-.36-.35-.36h-1.8v-1.85h1.8zm-3.1 7h-9.1v-9h9.1z" stroke="#000" stroke-opacity="0" fill="#fff"/><use xlink:href="#g" transform="matrix(1,0,0,1,674.0000000000001,162.32875000000018) translate(-4.185185185185173 12.666666666666666)"/><path d="M593.42 125.82l-9.88-16.98c-.77-1.37-2.12-2.14-3.7-2.18h-19.68c-1.58.04-2.93.8-3.7 2.18l-9.88 16.94c-.77 1.32-.77 2.86 0 4.22l9.88 17.07c.77 1.4 2.07 2.22 3.7 2.26h19.68c1.58-.04 2.93-.85 3.7-2.26l9.88-16.94c.77-1.4.77-2.94 0-4.3z" stroke="#000" stroke-opacity="0" fill="#4285f4"/><path d="M575.87 120l-9.47 2.9-2.2 1.27 3.2 3.1-4.32.27.1 4.02-2.4 3 14.9 14.76h4.17c1.6-.06 2.94-.85 3.7-2.26l7.17-12.34z" stroke="#000" stroke-opacity="0" fill-opacity=".07"/><path d="M569.25 123.9h1.5V132h-1.5v-8.07zM562.85 127.62H564v4.82h-1.5v-4.47c0-.2.16-.35.35-.35zM576 127.62h1.14c.2 0 .35.15.35.35v4.47H576v-4.82z" stroke="#000" stroke-opacity="0" fill="#fff"/><path d="M562.88 126.88h14.24c.2 0 .37.16.37.37v1.1h-15v-1.1c0-.2.17-.37.38-.37zM564.36 119.83h11.27c.24 0 .36.12.36.36v3.72c0 .24-.13.36-.37.36h-11.27c-.24 0-.36-.12-.36-.36v-3.73c0-.25.12-.37.36-.37zM561 130.96h4.14c.24 0 .36.12.36.36v2.98c0 .25-.12.37-.36.37H561c-.25 0-.37-.12-.37-.37v-2.98c0-.24.12-.36.37-.36zM574.86 130.96H579c.24 0 .37.12.37.36v2.98c0 .25-.13.37-.37.37h-4.14c-.24 0-.37-.12-.37-.37v-2.98c0-.24.12-.36.36-.36zM567.75 130.96h4.5c.24 0 .37.12.37.37v2.96c0 .24-.13.37-.38.37h-4.5c-.24 0-.37-.13-.37-.38v-2.97c0-.25.13-.37.38-.37z" stroke="#000" stroke-opacity="0" fill="#fff"/><path d="M900.75 65.36l-8.5-14.6c-.65-1.16-1.8-1.82-3.17-1.86h-16.9c-1.37.04-2.53.7-3.2 1.87l-8.5 14.56c-.64 1.13-.64 2.45 0 3.63l8.5 14.66c.67 1.2 1.8 1.9 3.2 1.95h16.9c1.36-.04 2.52-.74 3.18-1.95l8.5-14.55c.65-1.2.65-2.53 0-3.7z" stroke="#000" stroke-opacity="0" fill="#4285f4"/><path d="M898.3 73.22l-13.93-13.8-1 2.14-2.17-2.14-1 2.14-2.15-2.14-.54 2.6-1.9.3-.4 1.67-2.47.6 2.23 2.2-2.2.93 2.2 2.17-2.23.97 14.86 14.7h1.5c1.36-.06 2.5-.74 3.17-1.95z" stroke="#000" stroke-opacity="0" fill-opacity=".07"/><path d="M882.5 65.03h-3.67c-.22 0-.4.17-.4.38v3.65c0 .2.18.4.4.4h3.67c.2-.02.38-.2.38-.4V65.4c0-.2-.18-.37-.4-.37" stroke="#000" stroke-opacity="0" fill="#fff"/><path d="M888.32 64.73c.2 0 .35-.14.35-.35v-.55c0-.2-.16-.35-.35-.35h-1.8V61.8c0-.2-.17-.38-.38-.38h-1.68v-1.76c0-.2-.16-.35-.35-.35h-.57c-.2 0-.33.17-.33.36v1.77h-1.9v-1.77c0-.2-.17-.35-.36-.35h-.56c-.2 0-.35.17-.35.36v1.77h-1.9v-1.77c0-.2-.15-.35-.35-.35h-.56c-.2 0-.35.17-.35.36v1.77h-1.68c-.22 0-.4.16-.4.38v1.66H873c-.18 0-.34.16-.34.35v.58c0 .2.16.35.35.35h1.8v1.85H873c-.18 0-.34.16-.34.35v.6c0 .18.16.34.35.34h1.8v1.87H873c-.18 0-.34.16-.34.35v.56c0 .2.16.33.35.33h1.8v1.65c0 .2.17.38.4.38h1.67v1.78c0 .2.14.36.35.36h.56c.2 0 .36-.16.36-.35v-1.77h1.9v1.78c0 .2.15.36.34.36h.56c.2 0 .35-.16.35-.35v-1.77h1.9v1.78c0 .2.16.36.35.36h.58c.2 0 .35-.16.35-.35v-1.77h1.68c.2 0 .37-.17.37-.38V71h1.8c.18 0 .34-.17.34-.36v-.55c0-.22-.16-.36-.35-.36h-1.8v-1.87h1.8c.2 0 .35-.16.35-.35v-.57-.02c0-.2-.16-.35-.35-.35h-1.8v-1.85h1.8zm-3.1 7.02h-9.1v-9.02h9.1z" stroke="#000" stroke-opacity="0" fill="#fff"/><use xlink:href="#h" transform="matrix(1,0,0,1,860.0000000000001,90.56796874999998) translate(-19.333333333333314 12.666666666666666)"/><path d="M848.75 137.12l-8.5-14.6c-.65-1.16-1.8-1.82-3.17-1.86h-16.9c-1.37.04-2.53.7-3.2 1.87l-8.5 14.56c-.64 1.12-.64 2.44 0 3.62l8.5 14.67c.67 1.2 1.8 1.9 3.2 1.93h16.9c1.36-.04 2.52-.73 3.18-1.94l8.5-14.57c.65-1.2.65-2.53 0-3.7z" stroke="#000" stroke-opacity="0" fill="#4285f4"/><path d="M846.3 144.98l-13.93-13.8-1 2.14-2.17-2.14-1 2.14-2.15-2.14-.54 2.6-1.9.3-.4 1.67-2.47.6 2.23 2.2-2.2.94 2.2 2.16-2.23.97 14.86 14.7h1.5c1.36-.06 2.5-.74 3.17-1.95z" stroke="#000" stroke-opacity="0" fill-opacity=".07"/><path d="M830.5 136.8h-3.67c-.22 0-.4.16-.4.37v3.64c0 .23.18.4.4.4h3.67c.2 0 .38-.18.38-.4v-3.63c0-.2-.18-.38-.4-.38" stroke="#000" stroke-opacity="0" fill="#fff"/><path d="M836.32 136.5c.2 0 .35-.15.35-.36v-.55c0-.2-.16-.36-.35-.36h-1.8v-1.67c0-.22-.17-.4-.38-.4h-1.68v-1.75c0-.2-.16-.35-.35-.35h-.57c-.2 0-.33.16-.33.35v1.77h-1.9v-1.78c0-.2-.17-.35-.36-.35h-.56c-.2 0-.35.16-.35.35v1.77h-1.9v-1.78c0-.2-.15-.35-.35-.35h-.56c-.2 0-.35.16-.35.35v1.77h-1.68c-.22 0-.4.15-.4.37v1.65H821c-.18 0-.34.16-.34.35v.57c0 .2.16.35.35.35h1.8v1.84H821c-.18 0-.34.16-.34.35v.58c0 .2.16.35.35.35h1.8v1.87H821c-.18 0-.34.16-.34.35v.57c0 .2.16.33.35.33h1.8v1.66c0 .22.17.4.4.4h1.67v1.77c0 .2.14.35.35.35h.56c.2 0 .36-.16.36-.35v-1.78h1.9v1.77c0 .2.15.35.34.35h.56c.2 0 .35-.16.35-.35v-1.78h1.9v1.77c0 .2.16.35.35.35h.58c.2 0 .35-.16.35-.35v-1.78h1.68c.2-.02.37-.18.37-.4v-1.65h1.8c.18 0 .34-.16.34-.35v-.55c0-.2-.16-.35-.35-.35h-1.8v-1.87h1.8c.2 0 .35-.16.35-.35v-.57c0-.2-.16-.36-.35-.36h-1.8v-1.85h1.8zm-3.1 7h-9.1v-9h9.1z" stroke="#000" stroke-opacity="0" fill="#fff"/><use xlink:href="#h" transform="matrix(1,0,0,1,808.0000000000001,162.32875000000018) translate(-19.333333333333314 12.666666666666666)"/><path d="M942 137.12l-8.5-14.6c-.65-1.16-1.8-1.82-3.17-1.86h-16.9c-1.37.04-2.53.7-3.2 1.87l-8.5 14.56c-.65 1.12-.65 2.44 0 3.62l8.5 14.67c.67 1.2 1.78 1.9 3.2 1.93h16.9c1.36-.04 2.52-.73 3.18-1.94l8.5-14.57c.66-1.2.66-2.53 0-3.7z" stroke="#000" stroke-opacity="0" fill="#4285f4"/><path d="M939.56 144.98l-13.94-13.8-1 2.14-2.18-2.14-1 2.14-2.14-2.14-.54 2.6-1.92.3-.38 1.67-2.48.6 2.22 2.2-2.2.94 2.2 2.16-2.22.97 14.86 14.7h1.5c1.36-.06 2.5-.74 3.18-1.95z" stroke="#000" stroke-opacity="0" fill-opacity=".07"/><path d="M923.75 136.8h-3.67c-.22 0-.4.16-.4.37v3.64c0 .23.18.4.4.4h3.67c.2 0 .38-.18.38-.4v-3.63c0-.2-.18-.38-.4-.38" stroke="#000" stroke-opacity="0" fill="#fff"/><path d="M929.57 136.5c.2 0 .35-.15.35-.36v-.55c0-.2-.16-.36-.35-.36h-1.8v-1.67c0-.22-.17-.4-.38-.4h-1.7v-1.75c0-.2-.15-.35-.34-.35h-.58c-.2 0-.33.16-.33.35v1.77h-1.9v-1.78c0-.2-.17-.35-.36-.35h-.57c-.2 0-.36.16-.36.35v1.77h-1.9v-1.78c0-.2-.15-.35-.34-.35h-.56c-.2 0-.35.16-.35.35v1.77h-1.68c-.2 0-.4.15-.4.37v1.65h-1.78c-.2 0-.35.16-.35.35v.57c0 .2.17.35.36.35h1.8v1.84h-1.8c-.2 0-.35.16-.35.35v.58c0 .2.17.35.36.35h1.8v1.87h-1.8c-.2 0-.35.16-.35.35v.57c0 .2.17.33.36.33h1.8v1.66c0 .22.15.4.38.4h1.68v1.77c0 .2.14.35.35.35h.56c.2 0 .35-.16.35-.35v-1.78h1.9v1.77c0 .2.15.35.35.35h.56c.18 0 .34-.16.34-.35v-1.78h1.9v1.77c0 .2.17.35.36.35h.57c.2 0 .36-.16.36-.35v-1.78h1.68c.22-.02.38-.18.38-.4v-1.65h1.8c.18 0 .34-.16.34-.35v-.55c0-.2-.16-.35-.35-.35h-1.8v-1.87h1.8c.2 0 .35-.16.35-.35v-.57c0-.2-.16-.36-.35-.36h-1.8v-1.85h1.8zm-3.1 7h-9.1v-9h9.1z" stroke="#000" stroke-opacity="0" fill="#fff"/><use xlink:href="#h" transform="matrix(1,0,0,1,901.2487916337112,162.32875000000018) translate(-19.333333333333314 12.666666666666666)"/><path d="M160.84 222.68l155.02-85.73" stroke="#5e5e5e" stroke-width="2" fill="none"/><path d="M161.34 223.54l-1.5.82.15-.78-.1-1.53.47-.26z" fill="#5e5e5e"/><path d="M329.22 129.56l-10.24 10.96-4.48-8.1z" stroke="#5e5e5e" stroke-width="2" fill="#5e5e5e"/><path d="M300.03 242c0-1.1.9-2 2-2H998c1.1 0 2 .9 2 2v177.85c0 1.1-.9 2-2 2H302.03c-1.1 0-2-.9-2-2z" fill="#eceff1"/><use xlink:href="#i" transform="matrix(1,0,0,1,316.02557748677305,256) translate(0 16.69921875)"/><use xlink:href="#b" transform="matrix(1,0,0,1,316.02557748677305,256) translate(40.095703125 16.69921875)"/><use xlink:href="#c" transform="matrix(1,0,0,1,316.02557748677305,256) translate(49.517578125 16.69921875)"/><path d="M380.02 289.6c0-1.1.9-2 2-2h136c1.1 0 2 .9 2 2v115.04c0 1.1-.9 2-2 2h-136c-1.1 0-2-.9-2-2z" fill="#f9fbe7"/><use xlink:href="#j" transform="matrix(1,0,0,1,396.02265434542755,303.60814985566935) translate(0 14.637586805555557)"/><path d="M440.77 356.16l-8.5-14.6c-.65-1.17-1.8-1.83-3.17-1.86h-16.9c-1.37.03-2.53.7-3.2 1.87l-8.48 14.55c-.66 1.14-.66 2.46 0 3.63l8.5 14.67c.65 1.2 1.77 1.9 3.17 1.95h16.9c1.36-.04 2.52-.74 3.18-1.95l8.5-14.56c.65-1.2.65-2.53 0-3.7z" stroke="#000" stroke-opacity="0" fill="#4285f4"/><path d="M438.33 364.02l-13.94-13.8-1 2.14-2.18-2.14-1 2.14-2.15-2.14-.54 2.58-1.9.32-.4 1.67-2.48.6 2.23 2.2-2.2.93 2.2 2.17-2.23.97 14.86 14.7h1.52c1.36-.07 2.5-.75 3.17-1.95z" stroke="#000" stroke-opacity="0" fill-opacity=".07"/><path d="M422.52 355.83h-3.67c-.22 0-.4.17-.4.38v3.65c0 .2.18.4.4.4h3.67c.2-.02.38-.2.38-.4v-3.64c0-.2-.18-.37-.4-.37" stroke="#000" stroke-opacity="0" fill="#fff"/><path d="M428.34 355.53c.2 0 .35-.15.35-.35v-.56c0-.2-.17-.34-.36-.34h-1.8v-1.67c0-.2-.17-.38-.38-.38h-1.68v-1.76c0-.2-.16-.35-.35-.35h-.58c-.2 0-.33.17-.33.36v1.77h-1.9v-1.77c0-.2-.17-.35-.36-.35h-.56c-.2 0-.35.17-.35.36v1.77h-1.9v-1.77c0-.2-.15-.35-.35-.35h-.56c-.2 0-.35.17-.35.36v1.77h-1.7c-.2 0-.37.16-.37.38v1.66h-1.8c-.2 0-.35.16-.35.35v.58c0 .2.16.35.35.35h1.8v1.85h-1.8c-.2 0-.35.16-.35.35v.6c0 .18.16.33.35.33h1.8v1.87h-1.8c-.2 0-.35.16-.35.35v.57c0 .2.16.34.35.34h1.8v1.65c0 .2.16.38.38.38h1.7v1.78c0 .2.14.35.34.35h.56c.2 0 .36-.15.36-.34v-1.77h1.9v1.78c0 .2.15.35.34.35h.56c.2 0 .35-.15.35-.34v-1.77h1.92v1.78c0 .2.16.35.35.35h.58c.2 0 .35-.15.35-.34v-1.77h1.68c.2-.02.37-.17.37-.38v-1.66h1.8c.18 0 .34-.17.34-.36v-.56c0-.2-.17-.35-.36-.35h-1.8v-1.87h1.8c.2 0 .35-.15.35-.34v-.57-.02c0-.2-.17-.35-.36-.35h-1.8v-1.85h1.8zm-3.1 7.02h-9.1v-9.02h9.1z" stroke="#000" stroke-opacity="0" fill="#fff"/><use xlink:href="#f" transform="matrix(1,0,0,1,400.0219235600913,381.3651200964107) translate(-3.4259259259259167 12.666666666666666)"/><path d="M500.77 356.16l-8.5-14.6c-.65-1.17-1.8-1.83-3.17-1.86h-16.9c-1.37.03-2.53.7-3.2 1.87l-8.5 14.55c-.65 1.14-.65 2.46 0 3.63l8.5 14.67c.67 1.2 1.8 1.9 3.2 1.95h16.9c1.36-.04 2.52-.74 3.18-1.95l8.5-14.56c.65-1.2.65-2.53 0-3.7z" stroke="#000" stroke-opacity="0" fill="#4285f4"/><path d="M498.33 364.02l-13.94-13.8-1 2.14-2.18-2.14-1 2.14-2.15-2.14-.54 2.58-1.92.32-.37 1.67-2.48.6 2.22 2.2-2.2.93 2.2 2.17-2.22.97 14.86 14.7h1.52c1.35-.07 2.5-.75 3.17-1.95z" stroke="#000" stroke-opacity="0" fill-opacity=".07"/><path d="M482.52 355.83h-3.67c-.22 0-.4.17-.4.38v3.65c0 .2.18.4.4.4h3.67c.2-.02.38-.2.38-.4v-3.64c0-.2-.18-.37-.4-.37" stroke="#000" stroke-opacity="0" fill="#fff"/><path d="M488.34 355.53c.2 0 .35-.15.35-.35v-.56c0-.2-.17-.34-.36-.34h-1.8v-1.67c0-.2-.17-.38-.38-.38h-1.68v-1.76c0-.2-.16-.35-.35-.35h-.58c-.2 0-.33.17-.33.36v1.77h-1.9v-1.77c0-.2-.17-.35-.36-.35h-.56c-.2 0-.36.17-.36.36v1.77h-1.88v-1.77c0-.2-.17-.35-.36-.35h-.56c-.2 0-.35.17-.35.36v1.77h-1.7c-.2 0-.38.16-.38.38v1.66h-1.8c-.18 0-.34.16-.34.35v.58c0 .2.16.35.35.35h1.8v1.85h-1.8c-.2 0-.35.16-.35.35v.6c0 .18.16.33.35.33h1.8v1.87h-1.8c-.2 0-.35.16-.35.35v.57c0 .2.16.34.35.34h1.8v1.65c0 .2.15.38.38.38h1.7v1.78c0 .2.13.35.34.35h.56c.2 0 .36-.15.36-.34v-1.77h1.88v1.78c0 .2.16.35.36.35h.56c.2 0 .35-.15.35-.34v-1.77h1.92v1.78c0 .2.16.35.35.35h.57c.2 0 .36-.15.36-.34v-1.77h1.68c.2-.02.37-.17.37-.38v-1.66h1.8c.18 0 .34-.17.34-.36v-.56c0-.2-.17-.35-.36-.35h-1.8v-1.87h1.8c.2 0 .35-.15.35-.34v-.57-.02c0-.2-.17-.35-.36-.35h-1.8v-1.85h1.8zm-3.1 7.02h-9.1v-9.02h9.1z" stroke="#000" stroke-opacity="0" fill="#fff"/><use xlink:href="#f" transform="matrix(1,0,0,1,460.0197312040822,381.3651200964107) translate(-3.4259259259259167 12.666666666666666)"/><path d="M379.45 344.95l-9.9-17c-.76-1.35-2.1-2.12-3.7-2.16H346.2c-1.58.03-2.92.8-3.7 2.16l-9.88 16.94c-.77 1.33-.77 2.86 0 4.23l9.9 17.07c.76 1.4 2.05 2.2 3.68 2.26h19.68c1.6-.05 2.93-.86 3.7-2.26l9.9-16.94c.75-1.4.75-2.95 0-4.3z" stroke="#000" stroke-opacity="0" fill="#4285f4"/><path d="M361.9 339.13l-9.48 2.9-2.18 1.26 3.17 3.1-4.3.26.1 4.02-2.4 3 14.9 14.77h4.17c1.6-.06 2.94-.85 3.72-2.26l7.15-12.35z" stroke="#000" stroke-opacity="0" fill-opacity=".07"/><path d="M355.27 343.04h1.5v8.06h-1.5v-8.06zM348.88 346.75h1.15v4.82h-1.5v-4.48c0-.2.15-.35.35-.35zM362.02 346.75h1.15c.2 0 .35.15.35.34v4.47h-1.5v-4.82z" stroke="#000" stroke-opacity="0" fill="#fff"/><path d="M348.9 346h14.24c.2 0 .38.17.38.38v1.1h-15v-1.1c0-.2.17-.38.38-.38zM350.4 338.96h11.26c.24 0 .36.12.36.36v3.73c0 .24-.12.36-.36.36H350.4c-.25 0-.37-.1-.37-.35v-3.73c0-.24.12-.36.36-.36zM347.02 350.08h4.14c.24 0 .37.13.37.37v2.98c0 .24-.13.36-.37.36h-4.14c-.24 0-.37-.13-.37-.37v-2.98c0-.24.13-.37.37-.37zM360.88 350.08h4.14c.25 0 .37.13.37.37v2.98c0 .24-.13.36-.38.36h-4.14c-.24 0-.36-.13-.36-.37v-2.98c0-.24.12-.37.36-.37zM353.78 350.08h4.5c.24 0 .36.13.36.38v2.96c0 .25-.12.37-.37.37h-4.5c-.25 0-.37-.13-.37-.38v-2.96c0-.25.12-.38.38-.38z" stroke="#000" stroke-opacity="0" fill="#fff"/><path d="M594 289.6c0-1.1.9-2 2-2h136c1.1 0 2 .9 2 2v115.04c0 1.1-.9 2-2 2H596c-1.1 0-2-.9-2-2z" fill="#f9fbe7"/><use xlink:href="#k" transform="matrix(1,0,0,1,610.0148349423283,303.60814985566935) translate(0 14.637586805555557)"/><path d="M654.77 356.16l-8.5-14.6c-.66-1.17-1.82-1.83-3.18-1.86h-16.92c-1.36.03-2.5.7-3.17 1.87l-8.5 14.55c-.65 1.14-.65 2.46 0 3.63l8.5 14.67c.67 1.2 1.78 1.9 3.18 1.95h16.9c1.37-.04 2.53-.74 3.2-1.95l8.5-14.56c.65-1.2.65-2.53 0-3.7z" stroke="#000" stroke-opacity="0" fill="#4285f4"/><path d="M652.32 364.02l-13.94-13.8-1 2.14-2.17-2.14-1 2.14-2.14-2.14-.53 2.58-1.92.32-.38 1.67-2.48.6 2.23 2.2-2.2.93 2.2 2.17-2.23.97 14.86 14.7h1.5c1.37-.07 2.52-.75 3.18-1.95z" stroke="#000" stroke-opacity="0" fill-opacity=".07"/><path d="M636.5 355.83h-3.66c-.22 0-.4.17-.4.38v3.65c0 .2.18.4.4.4h3.67c.23-.02.4-.2.4-.4v-3.64c0-.2-.18-.37-.4-.37" stroke="#000" stroke-opacity="0" fill="#fff"/><path d="M642.33 355.53c.2 0 .36-.15.36-.35v-.56c0-.2-.17-.34-.37-.34h-1.8v-1.67c0-.2-.17-.38-.37-.38h-1.7v-1.76c0-.2-.15-.35-.34-.35h-.57c-.2 0-.34.17-.34.36v1.77h-1.88v-1.77c-.02-.2-.18-.35-.37-.35h-.56c-.2 0-.36.17-.36.36v1.77h-1.9v-1.77c0-.2-.15-.35-.34-.35h-.56c-.2 0-.36.17-.36.36v1.77h-1.68c-.2 0-.38.16-.38.38v1.66h-1.8c-.2 0-.35.16-.35.35v.58c0 .2.16.35.36.35h1.8v1.85h-1.8c-.2 0-.36.16-.36.35v.6c0 .18.16.33.36.33h1.8v1.87h-1.8c-.2 0-.36.16-.36.35v.57c0 .2.16.34.36.34h1.8v1.65c0 .2.15.38.37.38h1.68v1.78c0 .2.15.35.36.35h.56c.2 0 .35-.15.35-.34v-1.77h1.9v1.78c0 .2.15.35.34.35h.55c.2 0 .35-.15.35-.34v-1.77h1.9v1.78c0 .2.17.35.36.35h.58c.2 0 .35-.15.35-.34v-1.77h1.67c.2-.02.37-.17.37-.38v-1.66h1.8c.2 0 .35-.17.35-.36v-.56c0-.2-.17-.35-.37-.35h-1.8v-1.87h1.8c.2 0 .36-.15.36-.34v-.57-.02c0-.2-.17-.35-.37-.35h-1.8v-1.85h1.8zm-3.1 7.02h-9.1v-9.02h9.1z" stroke="#000" stroke-opacity="0" fill="#fff"/><use xlink:href="#g" transform="matrix(1,0,0,1,614.0141041569921,381.3651200964107) translate(-4.185185185185173 12.666666666666666)"/><path d="M714.76 356.16l-8.5-14.6c-.65-1.17-1.8-1.83-3.17-1.86h-16.92c-1.36.03-2.52.7-3.18 1.87l-8.5 14.55c-.65 1.14-.65 2.46 0 3.63l8.5 14.67c.66 1.2 1.78 1.9 3.18 1.95h16.9c1.37-.04 2.53-.74 3.2-1.95l8.48-14.56c.66-1.2.66-2.53 0-3.7z" stroke="#000" stroke-opacity="0" fill="#4285f4"/><path d="M712.32 364.02l-13.94-13.8-1 2.14-2.17-2.14-1 2.14-2.14-2.14-.54 2.58-1.9.32-.4 1.67-2.48.6 2.23 2.2-2.2.93 2.2 2.17-2.23.97 14.86 14.7h1.5c1.37-.07 2.52-.75 3.18-1.95z" stroke="#000" stroke-opacity="0" fill-opacity=".07"/><path d="M696.5 355.83h-3.66c-.22 0-.4.17-.4.38v3.65c0 .2.18.4.4.4h3.67c.22-.02.4-.2.4-.4v-3.64c0-.2-.2-.37-.4-.37" stroke="#000" stroke-opacity="0" fill="#fff"/><path d="M702.33 355.53c.2 0 .35-.15.35-.35v-.56c0-.2-.16-.34-.35-.34h-1.8v-1.67c0-.2-.17-.38-.38-.38h-1.68v-1.76c0-.2-.16-.35-.35-.35h-.58c-.2 0-.33.17-.33.36v1.77h-1.88v-1.77c-.02-.2-.18-.35-.37-.35h-.56c-.2 0-.36.17-.36.36v1.77h-1.9v-1.77c0-.2-.15-.35-.35-.35h-.57c-.2 0-.35.17-.35.36v1.77h-1.68c-.2 0-.38.16-.38.38v1.66h-1.8c-.2 0-.35.16-.35.35v.58c0 .2.16.35.35.35h1.8v1.85h-1.8c-.2 0-.35.16-.35.35v.6c0 .18.16.33.35.33h1.8v1.87h-1.8c-.2 0-.35.16-.35.35v.57c0 .2.16.34.35.34h1.8v1.65c0 .2.16.38.38.38h1.68v1.78c0 .2.15.35.35.35h.56c.2 0 .35-.15.35-.34v-1.77h1.9v1.78c0 .2.15.35.34.35h.55c.2 0 .35-.15.35-.34v-1.77h1.9v1.78c0 .2.17.35.36.35h.58c.2 0 .35-.15.35-.34v-1.77h1.67c.2-.02.37-.17.37-.38v-1.66h1.8c.18 0 .34-.17.34-.36v-.56c0-.2-.16-.35-.35-.35h-1.8v-1.87h1.8c.2 0 .35-.15.35-.34v-.57-.02c0-.2-.16-.35-.35-.35h-1.8v-1.85h1.8zm-3.1 7.02h-9.1v-9.02h9.1z" stroke="#000" stroke-opacity="0" fill="#fff"/><use xlink:href="#g" transform="matrix(1,0,0,1,674.0119118009831,381.3651200964107) translate(-4.185185185185173 12.666666666666666)"/><path d="M593.44 344.95l-9.9-17c-.76-1.35-2.1-2.12-3.68-2.16h-19.68c-1.6.03-2.93.8-3.7 2.16l-9.9 16.94c-.76 1.33-.76 2.86 0 4.23l9.9 17.07c.77 1.4 2.06 2.2 3.7 2.26h19.68c1.58-.05 2.92-.86 3.7-2.26l9.88-16.94c.77-1.4.77-2.95 0-4.3z" stroke="#000" stroke-opacity="0" fill="#4285f4"/><path d="M575.88 339.13l-9.46 2.9-2.2 1.26 3.18 3.1-4.3.26.08 4.02-2.4 3 14.92 14.77h4.17c1.58-.06 2.93-.85 3.7-2.26l7.17-12.35z" stroke="#000" stroke-opacity="0" fill-opacity=".07"/><path d="M569.26 343.04h1.5v8.06h-1.5v-8.06zM562.87 346.75h1.15v4.82h-1.5v-4.48c0-.2.16-.35.35-.35zM576 346.75h1.16c.2 0 .35.15.35.34v4.47H576v-4.82z" stroke="#000" stroke-opacity="0" fill="#fff"/><path d="M562.9 346h14.23c.2 0 .38.17.38.38v1.1h-14.98v-1.1c0-.2.16-.38.37-.38zM564.38 338.96h11.27c.24 0 .36.12.36.36v3.73c0 .24-.1.36-.35.36h-11.27c-.24 0-.36-.1-.36-.35v-3.73c0-.24.12-.36.36-.36zM561 350.08h4.15c.25 0 .37.13.37.37v2.98c0 .24-.12.36-.37.36H561c-.23 0-.35-.13-.35-.37v-2.98c0-.24.12-.37.36-.37zM574.88 350.08h4.14c.24 0 .36.13.36.37v2.98c0 .24-.12.36-.36.36h-4.14c-.25 0-.37-.13-.37-.37v-2.98c0-.24.13-.37.38-.37zM567.77 350.08h4.5c.24 0 .37.13.37.38v2.96c0 .25-.13.37-.38.37h-4.5c-.24 0-.37-.13-.37-.38v-2.96c0-.25.12-.38.37-.38z" stroke="#000" stroke-opacity="0" fill="#fff"/><path d="M900.76 284.98l-8.5-14.6c-.66-1.17-1.8-1.83-3.18-1.86h-16.9c-1.37.03-2.52.7-3.18 1.87l-8.5 14.54c-.66 1.14-.66 2.46 0 3.63l8.5 14.67c.66 1.2 1.77 1.9 3.17 1.95h16.9c1.38-.05 2.53-.75 3.2-1.96l8.5-14.56c.65-1.2.65-2.53 0-3.7z" stroke="#000" stroke-opacity="0" fill="#4285f4"/><path d="M898.3 292.84l-13.93-13.8-1 2.14-2.17-2.14-1 2.14-2.15-2.14-.53 2.58-1.92.32-.38 1.67-2.5.6 2.24 2.2-2.2.95 2.2 2.17-2.23.97 14.86 14.68h1.5c1.36-.06 2.5-.74 3.17-1.94z" stroke="#000" stroke-opacity="0" fill-opacity=".07"/><path d="M882.5 284.65h-3.67c-.22 0-.4.17-.4.38v3.64c0 .2.18.4.4.4h3.67c.22-.02.38-.2.38-.4v-3.64c0-.2-.17-.38-.4-.38" stroke="#000" stroke-opacity="0" fill="#fff"/><path d="M888.32 284.35c.2 0 .36-.15.36-.35v-.56c0-.2-.16-.34-.36-.34h-1.8v-1.67c0-.22-.16-.4-.37-.4h-1.68v-1.75c0-.2-.16-.35-.36-.35h-.56c-.2 0-.34.16-.34.35v1.77h-1.9v-1.77c0-.2-.17-.35-.36-.35h-.56c-.2 0-.35.16-.35.35v1.77h-1.9v-1.77c0-.2-.15-.35-.34-.35h-.57c-.2 0-.35.16-.35.35v1.77h-1.7c-.2 0-.37.16-.37.38v1.65h-1.78c-.2 0-.36.16-.36.35v.57c0 .2.16.35.36.35h1.8v1.85H873c-.2 0-.36.16-.36.35v.6c0 .18.16.33.36.33h1.8v1.87H873c-.2 0-.36.16-.36.35v.57c0 .2.16.34.36.34h1.8v1.67c0 .2.15.38.37.38h1.68v1.78c0 .2.14.34.35.34h.56c.18 0 .34-.15.34-.34v-1.78h1.9v1.78c0 .2.15.34.34.34h.56c.2 0 .36-.15.36-.34v-1.78h1.9v1.78c0 .2.16.34.35.34h.58c.2 0 .35-.15.35-.34v-1.78h1.68c.2-.02.37-.17.37-.38v-1.66h1.8c.2 0 .35-.15.35-.34v-.56c0-.2-.16-.35-.36-.35h-1.8v-1.87h1.8c.2 0 .36-.15.36-.34v-.57-.02c0-.2-.16-.35-.36-.35h-1.8v-1.85h1.8zm-3.1 7.02h-9.1v-9.02h9.1z" stroke="#000" stroke-opacity="0" fill="#fff"/><use xlink:href="#h" transform="matrix(1,0,0,1,860.005115497355,310.1850636598708) translate(-19.333333333333314 12.666666666666666)"/><path d="M848.76 356.16l-8.5-14.6c-.66-1.17-1.8-1.83-3.17-1.86h-16.93c-1.36.03-2.5.7-3.17 1.87l-8.5 14.55c-.66 1.14-.66 2.46 0 3.63l8.5 14.67c.66 1.2 1.77 1.9 3.17 1.95h16.92c1.35-.04 2.5-.74 3.16-1.95l8.5-14.56c.66-1.2.66-2.53 0-3.7z" stroke="#000" stroke-opacity="0" fill="#4285f4"/><path d="M846.3 364.02l-13.93-13.8-1 2.14-2.17-2.14-1 2.14-2.14-2.14-.54 2.58-1.92.32-.38 1.67-2.48.6 2.22 2.2-2.2.93 2.2 2.17-2.22.97 14.86 14.7h1.5c1.36-.07 2.5-.75 3.18-1.95z" stroke="#000" stroke-opacity="0" fill-opacity=".07"/><path d="M830.5 355.83h-3.67c-.2 0-.4.17-.4.38v3.65c0 .2.2.4.4.4h3.68c.22-.02.38-.2.38-.4v-3.64c0-.2-.17-.37-.4-.37" stroke="#000" stroke-opacity="0" fill="#fff"/><path d="M836.33 355.53c.2 0 .35-.15.35-.35v-.56c0-.2-.16-.34-.35-.34h-1.8v-1.67c0-.2-.17-.38-.38-.38h-1.68v-1.76c0-.2-.16-.35-.35-.35h-.58c-.2 0-.34.17-.34.36v1.77h-1.9v-1.77c0-.2-.16-.35-.36-.35h-.56c-.2 0-.35.17-.35.36v1.77h-1.9v-1.77c0-.2-.15-.35-.34-.35h-.57c-.2 0-.35.17-.35.36v1.77h-1.68c-.2 0-.4.16-.4.38v1.66h-1.78c-.2 0-.35.16-.35.35v.58c0 .2.16.35.35.35h1.8v1.85H821c-.2 0-.35.16-.35.35v.6c0 .18.16.33.35.33h1.8v1.87H821c-.2 0-.35.16-.35.35v.57c0 .2.16.34.35.34h1.8v1.65c0 .2.15.38.38.38h1.68v1.78c0 .2.14.35.35.35h.56c.18 0 .34-.15.34-.34v-1.77h1.9v1.78c0 .2.15.35.34.35h.56c.2 0 .36-.15.36-.34v-1.77h1.9v1.78c0 .2.16.35.35.35h.58c.2 0 .35-.15.35-.34v-1.77h1.68c.2-.02.37-.17.37-.38v-1.66h1.8c.2 0 .35-.17.35-.36v-.56c0-.2-.16-.35-.35-.35h-1.8v-1.87h1.8c.2 0 .35-.15.35-.34v-.57-.02c0-.2-.16-.35-.35-.35h-1.8v-1.85h1.8zm-3.1 7.02h-9.1v-9.02h9.1z" stroke="#000" stroke-opacity="0" fill="#fff"/><use xlink:href="#h" transform="matrix(1,0,0,1,808.0070155392294,381.3651200964107) translate(-19.333333333333314 12.666666666666666)"/><path d="M942 356.16l-8.5-14.6c-.65-1.17-1.8-1.83-3.17-1.86h-16.9c-1.37.03-2.53.7-3.2 1.87l-8.48 14.55c-.66 1.14-.66 2.46 0 3.63l8.5 14.67c.65 1.2 1.77 1.9 3.17 1.95h16.9c1.37-.04 2.53-.74 3.2-1.95l8.48-14.56c.66-1.2.66-2.53 0-3.7z" stroke="#000" stroke-opacity="0" fill="#4285f4"/><path d="M939.56 364.02l-13.94-13.8-1 2.14-2.17-2.14-1 2.14-2.15-2.14-.54 2.58-1.9.32-.4 1.67-2.48.6 2.23 2.2-2.2.93 2.2 2.17-2.22.97 14.86 14.7h1.5c1.37-.07 2.52-.75 3.18-1.95z" stroke="#000" stroke-opacity="0" fill-opacity=".07"/><path d="M923.75 355.83h-3.67c-.22 0-.4.17-.4.38v3.65c0 .2.18.4.4.4h3.67c.2-.02.38-.2.38-.4v-3.64c0-.2-.18-.37-.4-.37" stroke="#000" stroke-opacity="0" fill="#fff"/><path d="M929.57 355.53c.2 0 .35-.15.35-.35v-.56c0-.2-.16-.34-.35-.34h-1.8v-1.67c0-.2-.17-.38-.38-.38h-1.7v-1.76c0-.2-.15-.35-.34-.35h-.58c-.2 0-.33.17-.33.36v1.77h-1.9v-1.77c0-.2-.17-.35-.36-.35h-.57c-.2 0-.35.17-.35.36v1.77h-1.9v-1.77c0-.2-.15-.35-.34-.35h-.57c-.2 0-.35.17-.35.36v1.77h-1.68c-.2 0-.38.16-.38.38v1.66h-1.8c-.2 0-.35.16-.35.35v.58c0 .2.17.35.36.35h1.8v1.85h-1.8c-.2 0-.35.16-.35.35v.6c0 .18.17.33.36.33h1.8v1.87h-1.8c-.2 0-.35.16-.35.35v.57c0 .2.17.34.36.34h1.8v1.65c0 .2.16.38.38.38h1.68v1.78c0 .2.15.35.35.35h.57c.2 0 .35-.15.35-.34v-1.77h1.88v1.78c0 .2.16.35.35.35h.56c.18 0 .34-.15.34-.34v-1.77h1.9v1.78c0 .2.17.35.36.35h.58c.2 0 .35-.15.35-.34v-1.77h1.68c.22-.02.38-.17.38-.38v-1.66h1.8c.18 0 .34-.17.34-.36v-.56c0-.2-.16-.35-.35-.35h-1.8v-1.87h1.8c.2 0 .35-.15.35-.34v-.57-.02c0-.2-.16-.35-.35-.35h-1.8v-1.85h1.8zm-3.1 7.02h-9.1v-9.02h9.1z" stroke="#000" stroke-opacity="0" fill="#fff"/><use xlink:href="#h" transform="matrix(1,0,0,1,901.2523999304623,381.3651200964107) translate(-19.333333333333314 12.666666666666666)"/><path d="M160.77 223.74l156.3 112.57" stroke="#5e5e5e" stroke-width="2" fill="none"/><path d="M161.38 222.95l-1.17 1.62-.34-.25.13-.74-.12-1.7z" fill="#5e5e5e"/><path d="M329.45 345.23l-14.28-4.57 5.42-7.53z" stroke="#5e5e5e" stroke-width="2" fill="#5e5e5e"/><defs><path d="M561-1102c238-4 403 126 403 351v498c0 99 13 178 38 237V0H808c-11-21-19-59-26-114C696-25 593 20 474 20c-199 0-368-130-365-320 4-251 214-359 490-356h180v-85c-1-135-86-212-229-212-115 0-232 67-233 171H131c20-205 206-316 430-320zM294-326c0 117 90 185 207 185 122 0 239-75 278-162v-222H634c-227 0-340 66-340 199" id="l"/><path d="M1240-945c-141 0-250 95-250 227V0H804v-709c0-157-77-236-231-236-121 0-204 52-249 155V0H139v-1082h175l5 120c79-93 186-140 321-140 151 0 254 58 309 174 69-98 181-174 345-174 237 0 362 126 362 377V0h-185v-714c-2-159-67-231-231-231" id="m"/><path d="M599-131c141 0 220-65 285-146l113 88C906-50 770 20 589 20 281 21 93-214 93-545c0-223 93-397 233-485 74-48 154-72 240-72 300 2 449 218 445 537v77H278c0 197 129 357 321 357zm227-509c-3-180-88-310-260-310-170 0-264 140-282 310h542" id="n"/><path d="M663-916c-163-27-288 18-338 148V0H140v-1082h180l3 125c61-97 147-145 258-145 36 0 63 5 82 14v172" id="o"/><g id="a"><use transform="matrix(0.0087890625,0,0,0.0087890625,0,0)" xlink:href="#l"/><use transform="matrix(0.0087890625,0,0,0.0087890625,9.791015625,0)" xlink:href="#m"/><use transform="matrix(0.0087890625,0,0,0.0087890625,25.5673828125,0)" xlink:href="#n"/><use transform="matrix(0.0087890625,0,0,0.0087890625,35.103515625,0)" xlink:href="#o"/></g><path d="M525-543H37v-151h488v151" id="p"/><use transform="matrix(0.0087890625,0,0,0.0087890625,0,0)" xlink:href="#p" id="b"/><path d="M521 20C240 20 96-239 96-550c0-303 147-552 427-552 132 0 235 47 309 140l9-120h169V-26c4 277-183 454-459 452-165-1-334-81-400-187l96-111c79 98 176 147 291 147 180 1 288-109 286-290v-93C750-23 649 20 521 20zm48-965c-209 0-287 178-287 416 0 217 86 392 285 392 117 0 202-53 257-159v-494c-57-103-142-155-255-155" id="q"/><path d="M277-555c0 244 77 420 297 424 127 2 249-93 255-210h175C980-127 805 20 574 20 258 20 81-222 92-562c11-319 164-533 481-540 237-5 426 165 431 392H829c-7-133-115-242-256-240-209 4-296 166-296 395" id="r"/><path d="M632-1102c291 0 422 251 422 573 0 297-141 548-419 549-131 0-235-42-310-125v521H140v-1498h169l9 120c75-93 180-140 314-140zm-53 971c207 0 290-180 290-419 0-218-92-395-292-395-112 0-196 50-252 149v517c55 99 140 148 254 148" id="s"/><g id="c"><use transform="matrix(0.0087890625,0,0,0.0087890625,0,0)" xlink:href="#q"/><use transform="matrix(0.0087890625,0,0,0.0087890625,10.0986328125,0)" xlink:href="#r"/><use transform="matrix(0.0087890625,0,0,0.0087890625,19.5205078125,0)" xlink:href="#s"/></g><path d="M1098-255l208-827h185L1176 0h-150L763-820 507 0H357L43-1082h184l213 810 252-810h149" id="t"/><path d="M538-131c121 0 232-49 232-156 0-50-20-88-56-117-73-60-334-92-420-143-92-55-162-110-162-238 0-190 192-317 400-317 223 0 414 129 413 338H759c0-108-110-186-227-186-119 0-215 53-215 159 0 45 18 78 53 101 76 52 331 90 416 139 98 57 169 115 169 251C955-92 760 20 538 20c-176 0-314-68-386-174-38-55-57-115-57-179h185c6 129 116 202 258 202" id="u"/><path d="M456 20C285 20 205-92 206-268v-671H9v-143h197v-262h185v262h202v143H391v671c-9 125 92 149 207 118V0c-49 13-96 20-142 20" id="v"/><path d="M902-489h202v151H902V0H716v-338H53v-109l652-1009h197v967zm-639 0h453v-714l-22 40" id="w"/><path d="M634-1102c292 0 422 254 422 573 0 298-143 547-420 549-137 0-242-48-317-145L310 0H140v-1536h185v573c75-93 178-139 309-139zm-44 965c207 0 281-175 281-413 0-224-79-395-283-395-122 0-210 57-263 170v468c57 113 145 170 265 170" id="x"/><g id="d"><use transform="matrix(0.007703993055555556,0,0,0.007703993055555556,0,0)" xlink:href="#t"/><use transform="matrix(0.007703993055555556,0,0,0.007703993055555556,11.8564453125,0)" xlink:href="#n"/><use transform="matrix(0.007703993055555556,0,0,0.007703993055555556,20.21527777777778,0)" xlink:href="#u"/><use transform="matrix(0.007703993055555556,0,0,0.007703993055555556,28.350694444444446,0)" xlink:href="#v"/><use transform="matrix(0.007703993055555556,0,0,0.007703993055555556,33.504665798611114,0)" xlink:href="#w"/><use transform="matrix(0.007703993055555556,0,0,0.007703993055555556,42.3642578125,0)" xlink:href="#p"/><use transform="matrix(0.007703993055555556,0,0,0.007703993055555556,46.717013888888886,0)" xlink:href="#x"/></g><path fill="#333" d="M106-169C34-169 62-67 57 0H25v-261h32l-1 103c12-21 28-36 61-36 89 0 53 116 60 194h-32v-121c2-32-8-49-39-48" id="y"/><path fill="#333" d="M59-47c-2 24 18 29 38 22v24C64 9 27 4 27-40v-127H5v-23h24l9-43h21v43h35v23H59v120" id="z"/><path fill="#333" d="M115-194c55 1 70 41 70 98S169 2 115 4C84 4 66-9 55-30l1 105H24l-1-265h31l2 30c10-21 28-34 59-34zm-8 174c40 0 45-34 45-75s-6-73-45-74c-42 0-51 32-51 76 0 43 10 73 51 73" id="A"/><path fill="#333" d="M135-143c-3-34-86-38-87 0 15 53 115 12 119 90S17 21 10-45l28-5c4 36 97 45 98 0-10-56-113-15-118-90-4-57 82-63 122-42 12 7 21 19 24 35" id="B"/><path fill="#333" d="M33-154v-36h34v36H33zM33 0v-36h34V0H33" id="C"/><path fill="#333" d="M0 4l72-265h28L28 4H0" id="D"/><path fill="#333" d="M85-194c31 0 48 13 60 33l-1-100h32l1 261h-30c-2-10 0-23-3-31C134-8 116 4 85 4 32 4 16-35 15-94c0-66 23-100 70-100zm9 24c-40 0-46 34-46 75 0 40 6 74 45 74 42 0 51-32 51-76 0-42-9-74-50-73" id="E"/><path fill="#333" d="M210-169c-67 3-38 105-44 169h-31v-121c0-29-5-50-35-48C34-165 62-65 56 0H25l-1-190h30c1 10-1 24 2 32 10-44 99-50 107 0 11-21 27-35 58-36 85-2 47 119 55 194h-31v-121c0-29-5-49-35-48" id="F"/><path fill="#333" d="M24 0v-261h32V0H24" id="G"/><path fill="#333" d="M96-169c-40 0-48 33-48 73s9 75 48 75c24 0 41-14 43-38l32 2c-6 37-31 61-74 61-59 0-76-41-82-99-10-93 101-131 147-64 4 7 5 14 7 22l-32 3c-4-21-16-35-41-35" id="H"/><path fill="#333" d="M33 0v-38h34V0H33" id="I"/><path fill="#333" d="M206 0h-36l-40-164L89 0H53L-1-190h32L70-26l43-164h34l41 164 42-164h31" id="J"/><g id="e"><use transform="matrix(0.06172839506172839,0,0,0.06172839506172839,0,0)" xlink:href="#y"/><use transform="matrix(0.06172839506172839,0,0,0.06172839506172839,12.345679012345679,0)" xlink:href="#z"/><use transform="matrix(0.06172839506172839,0,0,0.06172839506172839,18.51851851851852,0)" xlink:href="#z"/><use transform="matrix(0.06172839506172839,0,0,0.06172839506172839,24.691358024691358,0)" xlink:href="#A"/><use transform="matrix(0.06172839506172839,0,0,0.06172839506172839,37.03703703703704,0)" xlink:href="#B"/><use transform="matrix(0.06172839506172839,0,0,0.06172839506172839,48.14814814814815,0)" xlink:href="#C"/><use transform="matrix(0.06172839506172839,0,0,0.06172839506172839,54.320987654320994,0)" xlink:href="#D"/><use transform="matrix(0.06172839506172839,0,0,0.06172839506172839,60.49382716049384,0)" xlink:href="#D"/><use transform="matrix(0.06172839506172839,0,0,0.06172839506172839,66.66666666666667,0)" xlink:href="#E"/><use transform="matrix(0.06172839506172839,0,0,0.06172839506172839,79.01234567901236,0)" xlink:href="#F"/><use transform="matrix(0.06172839506172839,0,0,0.06172839506172839,97.46913580246914,0)" xlink:href="#G"/><use transform="matrix(0.06172839506172839,0,0,0.06172839506172839,102.34567901234568,0)" xlink:href="#H"/><use transform="matrix(0.06172839506172839,0,0,0.06172839506172839,113.4567901234568,0)" xlink:href="#I"/><use transform="matrix(0.06172839506172839,0,0,0.06172839506172839,119.62962962962963,0)" xlink:href="#A"/><use transform="matrix(0.06172839506172839,0,0,0.06172839506172839,131.97530864197532,0)" xlink:href="#J"/></g><path fill="#333" d="M101-234c-31-9-42 10-38 44h38v23H63V0H32v-167H5v-23h27c-7-52 17-82 69-68v24" id="K"/><path fill="#333" d="M114-163C36-179 61-72 57 0H25l-1-190h30c1 12-1 29 2 39 6-27 23-49 58-41v29" id="L"/><path fill="#333" d="M100-194c62-1 85 37 85 99 1 63-27 99-86 99S16-35 15-95c0-66 28-99 85-99zM99-20c44 1 53-31 53-75 0-43-8-75-51-75s-53 32-53 75 10 74 51 75" id="M"/><path fill="#333" d="M117-194c89-4 53 116 60 194h-32v-121c0-31-8-49-39-48C34-167 62-67 57 0H25l-1-190h30c1 10-1 24 2 32 11-22 29-35 61-36" id="N"/><path fill="#333" d="M100-194c63 0 86 42 84 106H49c0 40 14 67 53 68 26 1 43-12 49-29l28 8c-11 28-37 45-77 45C44 4 14-33 15-96c1-61 26-98 85-98zm52 81c6-60-76-77-97-28-3 7-6 17-6 28h103" id="O"/><g id="f"><use transform="matrix(0.03703703703703702,0,0,0.03703703703703702,0,0)" xlink:href="#K"/><use transform="matrix(0.03703703703703702,0,0,0.03703703703703702,3.703703703703702,0)" xlink:href="#L"/><use transform="matrix(0.03703703703703702,0,0,0.03703703703703702,8.111111111111107,0)" xlink:href="#M"/><use transform="matrix(0.03703703703703702,0,0,0.03703703703703702,15.518518518518512,0)" xlink:href="#N"/><use transform="matrix(0.03703703703703702,0,0,0.03703703703703702,22.925925925925917,0)" xlink:href="#z"/><use transform="matrix(0.03703703703703702,0,0,0.03703703703703702,26.62962962962962,0)" xlink:href="#O"/><use transform="matrix(0.03703703703703702,0,0,0.03703703703703702,34.037037037037024,0)" xlink:href="#N"/><use transform="matrix(0.03703703703703702,0,0,0.03703703703703702,41.44444444444443,0)" xlink:href="#E"/></g><path fill="#333" d="M115-194c53 0 69 39 70 98 0 66-23 100-70 100C84 3 66-7 56-30L54 0H23l1-261h32v101c10-23 28-34 59-34zm-8 174c40 0 45-34 45-75 0-40-5-75-45-74-42 0-51 32-51 76 0 43 10 73 51 73" id="P"/><path fill="#333" d="M141-36C126-15 110 5 73 4 37 3 15-17 15-53c-1-64 63-63 125-63 3-35-9-54-41-54-24 1-41 7-42 31l-33-3c5-37 33-52 76-52 45 0 72 20 72 64v82c-1 20 7 32 28 27v20c-31 9-61-2-59-35zM48-53c0 20 12 33 32 33 41-3 63-29 60-74-43 2-92-5-92 41" id="Q"/><path fill="#333" d="M143 0L79-87 56-68V0H24v-261h32v163l83-92h37l-77 82L181 0h-38" id="R"/><g id="g"><use transform="matrix(0.03703703703703702,0,0,0.03703703703703702,0,0)" xlink:href="#P"/><use transform="matrix(0.03703703703703702,0,0,0.03703703703703702,7.407407407407404,0)" xlink:href="#Q"/><use transform="matrix(0.03703703703703702,0,0,0.03703703703703702,14.814814814814808,0)" xlink:href="#H"/><use transform="matrix(0.03703703703703702,0,0,0.03703703703703702,21.481481481481474,0)" xlink:href="#R"/><use transform="matrix(0.03703703703703702,0,0,0.03703703703703702,28.148148148148135,0)" xlink:href="#O"/><use transform="matrix(0.03703703703703702,0,0,0.03703703703703702,35.555555555555536,0)" xlink:href="#N"/><use transform="matrix(0.03703703703703702,0,0,0.03703703703703702,42.96296296296295,0)" xlink:href="#E"/></g><path fill="#333" d="M16-82v-28h88v28H16" id="S"/><g id="h"><use transform="matrix(0.03703703703703702,0,0,0.03703703703703702,0,0)" xlink:href="#E"/><use transform="matrix(0.03703703703703702,0,0,0.03703703703703702,7.407407407407404,0)" xlink:href="#P"/><use transform="matrix(0.03703703703703702,0,0,0.03703703703703702,14.814814814814808,0)" xlink:href="#S"/><use transform="matrix(0.03703703703703702,0,0,0.03703703703703702,19.222222222222214,0)" xlink:href="#H"/><use transform="matrix(0.03703703703703702,0,0,0.03703703703703702,25.88888888888888,0)" xlink:href="#Q"/><use transform="matrix(0.03703703703703702,0,0,0.03703703703703702,33.29629629629628,0)" xlink:href="#B"/><use transform="matrix(0.03703703703703702,0,0,0.03703703703703702,39.96296296296295,0)" xlink:href="#B"/><use transform="matrix(0.03703703703703702,0,0,0.03703703703703702,46.62962962962961,0)" xlink:href="#Q"/><use transform="matrix(0.03703703703703702,0,0,0.03703703703703702,54.03703703703702,0)" xlink:href="#N"/><use transform="matrix(0.03703703703703702,0,0,0.03703703703703702,61.44444444444442,0)" xlink:href="#E"/><use transform="matrix(0.03703703703703702,0,0,0.03703703703703702,68.85185185185182,0)" xlink:href="#L"/><use transform="matrix(0.03703703703703702,0,0,0.03703703703703702,73.25925925925922,0)" xlink:href="#Q"/></g><path d="M491 20c-241-1-355-148-355-398v-704h185v699c0 164 67 246 200 246 141 0 235-53 282-158v-787h185V0H812l-4-107C736-22 630 20 491 20" id="T"/><path d="M584 20C278 26 81-227 91-551c10-320 175-545 491-551 308-5 503 247 494 573-9 322-175 543-492 549zm-2-970c-208 0-305 185-305 421 0 216 106 398 307 398 211 0 307-186 307-420 0-214-109-399-309-399" id="U"/><g id="i"><use transform="matrix(0.0087890625,0,0,0.0087890625,0,0)" xlink:href="#n"/><use transform="matrix(0.0087890625,0,0,0.0087890625,9.5361328125,0)" xlink:href="#T"/><use transform="matrix(0.0087890625,0,0,0.0087890625,19.458984375,0)" xlink:href="#o"/><use transform="matrix(0.0087890625,0,0,0.0087890625,25.3740234375,0)" xlink:href="#U"/></g><path d="M589-945c-131 0-219 81-264 174V0H140v-1082h175l6 136c83-104 191-156 324-156 229 0 346 129 346 387V0H806v-716c-2-153-65-229-217-229" id="V"/><path d="M589-945c-131 0-219 81-264 174V0H140v-1536h185v585c82-101 189-151 320-151 229 0 346 129 346 387V0H806v-716c-2-153-65-229-217-229" id="W"/><path d="M729 0H543v-1233l-373 137v-168l530-199h29V0" id="X"/><g id="j"><use transform="matrix(0.007703993055555556,0,0,0.007703993055555556,0,0)" xlink:href="#n"/><use transform="matrix(0.007703993055555556,0,0,0.007703993055555556,8.358832465277779,0)" xlink:href="#T"/><use transform="matrix(0.007703993055555556,0,0,0.007703993055555556,17.056640625,0)" xlink:href="#o"/><use transform="matrix(0.007703993055555556,0,0,0.007703993055555556,22.24142795138889,0)" xlink:href="#U"/><use transform="matrix(0.007703993055555556,0,0,0.007703993055555556,31.23969184027778,0)" xlink:href="#p"/><use transform="matrix(0.007703993055555556,0,0,0.007703993055555556,35.59244791666667,0)" xlink:href="#V"/><use transform="matrix(0.007703993055555556,0,0,0.007703993055555556,44.29796006944445,0)" xlink:href="#U"/><use transform="matrix(0.007703993055555556,0,0,0.007703993055555556,53.29622395833334,0)" xlink:href="#o"/><use transform="matrix(0.007703993055555556,0,0,0.007703993055555556,59.02029079861112,0)" xlink:href="#v"/><use transform="matrix(0.007703993055555556,0,0,0.007703993055555556,64.17426215277779,0)" xlink:href="#W"/><use transform="matrix(0.007703993055555556,0,0,0.007703993055555556,72.86436631944446,0)" xlink:href="#X"/><use transform="matrix(0.007703993055555556,0,0,0.007703993055555556,81.72395833333334,0)" xlink:href="#p"/><use transform="matrix(0.007703993055555556,0,0,0.007703993055555556,86.07671440972223,0)" xlink:href="#l"/></g><g id="k"><use transform="matrix(0.007703993055555556,0,0,0.007703993055555556,0,0)" xlink:href="#n"/><use transform="matrix(0.007703993055555556,0,0,0.007703993055555556,8.358832465277779,0)" xlink:href="#T"/><use transform="matrix(0.007703993055555556,0,0,0.007703993055555556,17.056640625,0)" xlink:href="#o"/><use transform="matrix(0.007703993055555556,0,0,0.007703993055555556,22.24142795138889,0)" xlink:href="#U"/><use transform="matrix(0.007703993055555556,0,0,0.007703993055555556,31.23969184027778,0)" xlink:href="#p"/><use transform="matrix(0.007703993055555556,0,0,0.007703993055555556,35.59244791666667,0)" xlink:href="#u"/><use transform="matrix(0.007703993055555556,0,0,0.007703993055555556,43.72786458333334,0)" xlink:href="#U"/><use transform="matrix(0.007703993055555556,0,0,0.007703993055555556,52.72612847222223,0)" xlink:href="#T"/><use transform="matrix(0.007703993055555556,0,0,0.007703993055555556,61.42393663194445,0)" xlink:href="#v"/><use transform="matrix(0.007703993055555556,0,0,0.007703993055555556,66.57790798611111,0)" xlink:href="#W"/><use transform="matrix(0.007703993055555556,0,0,0.007703993055555556,75.26801215277779,0)" xlink:href="#X"/><use transform="matrix(0.007703993055555556,0,0,0.007703993055555556,84.12760416666667,0)" xlink:href="#p"/><use transform="matrix(0.007703993055555556,0,0,0.007703993055555556,88.48036024305556,0)" xlink:href="#l"/></g></defs></g></svg>